<svg xmlns="http://www.w3.org/2000/svg" viewBox="0 0 200.29 100"><g id="Layer_2" data-name="Layer 2"><g id="Layer_1-2" data-name="Layer 1"><rect width="200" height="100" style="fill:none"/><rect id="rect4498" x="0.29" y="12.84" width="200" height="74.32" style="fill:#2c2e2d"/><path id="path14" d="M72.07,62.12h3.8V53.19a5.15,5.15,0,0,1,.76-3,2.57,2.57,0,0,1,2.21-1,2.48,2.48,0,0,1,2.17,1,5.35,5.35,0,0,1,.71,3v9h3.8V52a7.3,7.3,0,0,0-.45-2.61,6.16,6.16,0,0,0-1.26-2A5.59,5.59,0,0,0,81.93,46a6,6,0,0,0-5.19.24,5.64,5.64,0,0,0-2.08,2.09,6.14,6.14,0,0,0-2.09-2.09,5.36,5.36,0,0,0-2.78-.72,4.48,4.48,0,0,0-1.24.16,4.55,4.55,0,0,0-1,.43,3.66,3.66,0,0,0-.79.6,3.56,3.56,0,0,0-.55.66V46H62.45V62.12h3.8V53.19a5.42,5.42,0,0,1,.7-3,2.45,2.45,0,0,1,2.16-1,2.57,2.57,0,0,1,2.21,1,5.1,5.1,0,0,1,.75,3Zm102.71-3.58a5.46,5.46,0,0,1-1,.34,4.68,4.68,0,0,1-1,.12,3,3,0,0,1-1-.15,1.8,1.8,0,0,1-.74-.5,2.27,2.27,0,0,1-.48-.9,4.53,4.53,0,0,1-.18-1.38V49.41h4.82V46h-4.82V41.12h-3.8V56.28A6.53,6.53,0,0,0,168.09,61a5.8,5.8,0,0,0,4.33,1.54,7.43,7.43,0,0,0,1.81-.21,11.28,11.28,0,0,0,1.55-.54ZM25.47,57.47a8.19,8.19,0,0,0,1.82,2.7,8.48,8.48,0,0,0,2.78,1.77,9.3,9.3,0,0,0,3.49.64,9.69,9.69,0,0,0,3.81-.74,8.31,8.31,0,0,0,3-2.14l-2.26-2.84a7.12,7.12,0,0,1-2,1.55,5.49,5.49,0,0,1-2.51.59,5.12,5.12,0,0,1-1.92-.36,4.75,4.75,0,0,1-1.55-1,4.45,4.45,0,0,1-1-1.55,5.64,5.64,0,0,1,0-4,4.67,4.67,0,0,1,1-1.58,4.78,4.78,0,0,1,1.55-1,5.12,5.12,0,0,1,1.92-.36,5.3,5.3,0,0,1,2.5.6,7.19,7.19,0,0,1,2,1.57l2.26-2.84a8.72,8.72,0,0,0-3-2.15,9.36,9.36,0,0,0-3.81-.76,9.11,9.11,0,0,0-3.49.65,8.15,8.15,0,0,0-4.6,4.49,8.7,8.7,0,0,0-.66,3.4,8.54,8.54,0,0,0,.66,3.39M47.32,46.19A8.2,8.2,0,0,0,44.57,48a8.33,8.33,0,0,0-1.81,2.69,9.06,9.06,0,0,0,0,6.74,8.31,8.31,0,0,0,1.81,2.71,8.2,8.2,0,0,0,2.75,1.8,9.51,9.51,0,0,0,6.91,0A8.31,8.31,0,0,0,57,60.13a8.18,8.18,0,0,0,1.82-2.71,8.93,8.93,0,0,0,0-6.74A8.2,8.2,0,0,0,57,48a8.31,8.31,0,0,0-2.75-1.8,9.51,9.51,0,0,0-6.91,0m1.52,12.45a4.46,4.46,0,0,1-1.5-1,4.34,4.34,0,0,1-1-1.56,5.63,5.63,0,0,1-.35-2,5.35,5.35,0,0,1,.36-2,4.62,4.62,0,0,1,1-1.56,4.45,4.45,0,0,1,1.51-1,5,5,0,0,1,1.92-.36,5.06,5.06,0,0,1,1.93.36,4.36,4.36,0,0,1,1.51,1,4.65,4.65,0,0,1,1,1.56,5.35,5.35,0,0,1,.35,2,5.42,5.42,0,0,1-.35,2,4.65,4.65,0,0,1-1,1.56,4.5,4.5,0,0,1-1.51,1,5.38,5.38,0,0,1-3.87,0m56.55-21.22h-3.8V47.81a5.52,5.52,0,0,0-2-1.67,6.63,6.63,0,0,0-2.93-.6A7.74,7.74,0,0,0,90.94,48a8.2,8.2,0,0,0-1.67,2.69,10,10,0,0,0,0,6.83,8.25,8.25,0,0,0,1.67,2.7,7.74,7.74,0,0,0,5.7,2.41,6.92,6.92,0,0,0,3-.59,4.86,4.86,0,0,0,2-1.67v1.8h3.8ZM95.2,58.61a4.07,4.07,0,0,1-1.45-1.06A4.58,4.58,0,0,1,92.86,56a6.36,6.36,0,0,1,0-3.86,4.45,4.45,0,0,1,.89-1.56A4.19,4.19,0,0,1,95.2,49.5a4.71,4.71,0,0,1,2-.38,4.79,4.79,0,0,1,1.89.36,4.21,4.21,0,0,1,1.45,1,4.67,4.67,0,0,1,.92,1.56,6,6,0,0,1,.31,2,5.79,5.79,0,0,1-.31,1.93,4.66,4.66,0,0,1-.92,1.58,4.13,4.13,0,0,1-1.45,1,4.47,4.47,0,0,1-1.89.39,4.71,4.71,0,0,1-2-.39m39.25-12.45a7.49,7.49,0,0,0-2.55,1.75,7.83,7.83,0,0,0-1.66,2.69,10.33,10.33,0,0,0,0,6.94A8,8,0,0,0,132,60.23,7.54,7.54,0,0,0,134.59,62a8.59,8.59,0,0,0,3.33.62,11.7,11.7,0,0,0,3.54-.52,9.2,9.2,0,0,0,3.14-1.76l-1.78-2.83a8.21,8.21,0,0,1-2.23,1.27,6.85,6.85,0,0,1-2.43.47,6.12,6.12,0,0,1-1.6-.22,4,4,0,0,1-1.4-.67,3.7,3.7,0,0,1-1-1.16,4.2,4.2,0,0,1-.52-1.69h11.63c0-.22.06-.45.08-.7s0-.49,0-.72a10,10,0,0,0-.57-3.45,8,8,0,0,0-1.58-2.69,7,7,0,0,0-2.41-1.75,7.5,7.5,0,0,0-3.1-.62,8.15,8.15,0,0,0-3.25.62m-.83,6.43a5.13,5.13,0,0,1,.4-1.43,3.52,3.52,0,0,1,.81-1.15,3.83,3.83,0,0,1,1.21-.76,4.45,4.45,0,0,1,1.61-.27,4,4,0,0,1,1.49.27,4,4,0,0,1,1.17.76,3.58,3.58,0,0,1,.81,1.14,4.5,4.5,0,0,1,.38,1.44Zm-10.27-6.5a4.27,4.27,0,0,0-1.89,1.83V46h-3.75V62.12h3.8V53.3a5.41,5.41,0,0,1,.27-1.78,3.56,3.56,0,0,1,.75-1.32,3.13,3.13,0,0,1,1.16-.81,4.08,4.08,0,0,1,1.5-.27,6.9,6.9,0,0,1,1.39.14,4.73,4.73,0,0,1,1.3.44l.83-3.67a7.5,7.5,0,0,0-1.25-.37,7.9,7.9,0,0,0-1.46-.12,6.13,6.13,0,0,0-2.65.55M113.48,46h-3.81V62.12h3.81ZM148.6,57.47a8.07,8.07,0,0,0,1.83,2.7,8.43,8.43,0,0,0,2.77,1.77,9.35,9.35,0,0,0,3.5.64,9.61,9.61,0,0,0,3.8-.74,8.23,8.23,0,0,0,3-2.14l-2.26-2.84a6.94,6.94,0,0,1-2,1.55,5.49,5.49,0,0,1-2.51.59,5,5,0,0,1-1.92-.36,4.54,4.54,0,0,1-2.58-2.55,5.64,5.64,0,0,1,0-4,4.86,4.86,0,0,1,1-1.58,4.67,4.67,0,0,1,1.55-1,5,5,0,0,1,1.92-.36,5.33,5.33,0,0,1,2.5.6,7.14,7.14,0,0,1,2,1.57l2.26-2.84a8.63,8.63,0,0,0-3-2.15,9.28,9.28,0,0,0-3.8-.76,9.16,9.16,0,0,0-3.5.65A8.32,8.32,0,0,0,150.43,48a8.17,8.17,0,0,0-1.83,2.7,8.7,8.7,0,0,0-.66,3.4,8.54,8.54,0,0,0,.66,3.39" style="fill:#fdee22"/></g></g></svg>