<svg xmlns="http://www.w3.org/2000/svg" xmlns:xlink="http://www.w3.org/1999/xlink" viewBox="0 0 200 100"><defs><clipPath id="clip-path"><rect x="5" y="34.9" width="190" height="30.2" style="fill:none"/></clipPath><clipPath id="clip-path-24"><path d="M184.44,35.39c-.52,0-2.08,0-3.88,2.2l.07.08a7.75,7.75,0,0,1,1.67-1.5,4.35,4.35,0,0,1,1.8-.68c.4-.05,1.74,0,3.26,0h0l0-.07h-2.9Z" style="fill:none"/></clipPath><radialGradient id="radial-gradient" cx="89.88" cy="-342.69" r="1.08" gradientTransform="translate(-1668.87 7144.54) scale(20.68)" gradientUnits="userSpaceOnUse"><stop offset="0" stop-color="#fedf50"/><stop offset="0.14" stop-color="#ffd239"/><stop offset="0.32" stop-color="#ffc31d"/><stop offset="0.44" stop-color="#fdbe16"/><stop offset="0.61" stop-color="#fbba17"/><stop offset="0.75" stop-color="#f3af1c"/><stop offset="0.89" stop-color="#eda021"/><stop offset="0.9" stop-color="#ed9e21"/><stop offset="1" stop-color="#e08726"/></radialGradient><clipPath id="clip-path-25"><path d="M173.84,35.39h0l-5.66,9.8-1.77,3.07-.21.36,0,0v0L171.56,58v0c-.12-.22-.2-.38-.25-.49a4.52,4.52,0,0,1-.32-1.9,10.5,10.5,0,0,1,1.54-4.43l3.32-5.76,3.33-5.75a10.47,10.47,0,0,1,3.06-3.54,4.35,4.35,0,0,1,1.81-.68c.4,0,1.75,0,3.27,0Z" style="fill:none"/></clipPath><radialGradient id="radial-gradient-2" cx="89.87" cy="-342.79" r="1.08" gradientTransform="translate(-1675.92 7129.57) scale(20.7 20.7)" xlink:href="#radial-gradient"/><clipPath id="clip-path-26"><path d="M193.32,51.5a4.51,4.51,0,0,1-1.49,1.23,10.64,10.64,0,0,1-4.6.88h-13.3a10.66,10.66,0,0,1-4.6-.88,4.51,4.51,0,0,1-1.49-1.23c-.21-.29-.74-1.2-1.38-2.3l1.36,2.35,5.08,8.81h15.36l6.68-11.57c-.74,1.28-1.38,2.39-1.62,2.71m-27.11-2.73.26.43Z" style="fill:none"/></clipPath><radialGradient id="radial-gradient-3" cx="89.81" cy="-342.73" r="1.08" gradientTransform="translate(-1690.19 7141.59) scale(20.69)" xlink:href="#radial-gradient"/><clipPath id="clip-path-27"><path d="M184.05,35.44a4.35,4.35,0,0,0-1.81.68,7.94,7.94,0,0,0-1.66,1.5,13.39,13.39,0,0,1,1.41,2l3.33,5.75,3.32,5.76a10.65,10.65,0,0,1,1.53,4.43,4.37,4.37,0,0,1-.31,1.9c-.16.36-.78,1.44-1.5,2.69L195,48.69h0L187.34,35.4h0c-1.52,0-2.87,0-3.27,0" style="fill:none"/></clipPath><radialGradient id="radial-gradient-4" cx="89.93" cy="-342.75" r="1.08" gradientTransform="translate(-1675.74 7167.85) scale(20.74)" xlink:href="#radial-gradient"/></defs><g id="Layer_2" data-name="Layer 2"><g id="Layer_1-2" data-name="Layer 1"><rect width="200" height="100" style="fill:none"/><g style="clip-path:url(#clip-path)"><path d="M11.65,55.93a6.29,6.29,0,0,1-4.53-1.86,6.78,6.78,0,0,1-1.88-4.83A6.92,6.92,0,0,1,7.16,44.4a6.47,6.47,0,0,1,4.66-2,6,6,0,0,1,4.3,1.74L14.54,45.8a4.1,4.1,0,0,0-2.77-1C9.62,44.76,8,46.65,8,49.16a4.89,4.89,0,0,0,1,3.15,3.58,3.58,0,0,0,2.78,1.28,4.06,4.06,0,0,0,3-1.14L16.28,54a6,6,0,0,1-4.63,1.94" style="fill:#fff"/></g><g style="clip-path:url(#clip-path)"><path d="M24.57,55.93a6.49,6.49,0,0,1-6.72-6.69,6.75,6.75,0,0,1,6.82-6.82,6.48,6.48,0,0,1,6.71,6.69,6.74,6.74,0,0,1-6.81,6.82m.05-11.22c-2.35,0-4.05,1.87-4.05,4.45s1.66,4.48,4.05,4.48,4.05-1.87,4.05-4.45A4.84,4.84,0,0,0,27.58,46a3.83,3.83,0,0,0-3-1.3" style="fill:#fff"/></g><g style="clip-path:url(#clip-path)"><path d="M49.35,55.67H46.84l-.59-7c-.12-1.44-.15-2.9-.15-2.91a.24.24,0,0,0-.23-.24h0a.23.23,0,0,0-.23.19s-.31,1.47-.71,2.73l-2.22,7.24H40.35l-2.22-7.18c-.4-1.32-.72-2.78-.73-2.79a.24.24,0,0,0-.23-.19h-.05a.23.23,0,0,0-.23.24s0,1.47-.15,2.86l-.59,7.07H33.82l1.27-13h3.6l2,6.5c.35,1.1.7,2.48.71,2.5a.24.24,0,0,0,.23.17.23.23,0,0,0,.22-.17s.36-1.4.68-2.47l2-6.53h3.53Z" style="fill:#fff"/></g><g style="clip-path:url(#clip-path)"><path d="M68.18,55.67H65.67l-.59-7c-.13-1.44-.15-2.9-.15-2.91a.24.24,0,0,0-.24-.24h0a.24.24,0,0,0-.23.19s-.3,1.47-.7,2.73l-2.22,7.24H59.18L57,48.48c-.4-1.31-.73-2.77-.73-2.78a.24.24,0,0,0-.23-.19h0a.23.23,0,0,0-.23.24s0,1.47-.16,2.86L55,55.67H52.64l1.27-13h3.61l2,6.5c.35,1.1.7,2.48.71,2.5a.23.23,0,0,0,.22.17.24.24,0,0,0,.23-.17s.36-1.4.68-2.47l2-6.53h3.53Z" style="fill:#fff"/></g><g style="clip-path:url(#clip-path)"><path d="M80.2,55.67H71.9v-13h8.22v2.11H74.59a.23.23,0,0,0-.23.23v2.86a.23.23,0,0,0,.23.23h4.72v2.06H74.59a.23.23,0,0,0-.23.23v3a.24.24,0,0,0,.23.24H80.2v2.1Z" style="fill:#fff"/></g><g style="clip-path:url(#clip-path)"><path d="M93.73,55.67H90.79L88,50.89a.26.26,0,0,0-.21-.12h-.93a.24.24,0,0,0-.24.24v4.66H84.14v-13H88a6.46,6.46,0,0,1,4.18,1.08,3.94,3.94,0,0,1-1.38,6.53.2.2,0,0,0-.14.14.28.28,0,0,0,0,.2Zm-6.89-11a.23.23,0,0,0-.24.23v3.59a.23.23,0,0,0,.24.23h1.21c1.83,0,2.71-.66,2.71-2s-.88-2-2.71-2Z" style="fill:#fff"/></g><g style="clip-path:url(#clip-path)"><path d="M105,55.67H96.11V53.75l5.55-8.63a.23.23,0,0,0,0-.24.22.22,0,0,0-.2-.12H96.23V42.65h8.68v1.92L99.37,53.2a.24.24,0,0,0,.19.37H105v2.1Z" style="fill:#fff"/></g><g style="clip-path:url(#clip-path)"><path d="M113.47,55.67h-4.92v-13H113c3.2,0,4.7,1,4.7,3.23a2.76,2.76,0,0,1-2.09,2.75.24.24,0,0,0-.16.23v0a.25.25,0,0,0,.2.24,2.79,2.79,0,0,1,2.68,2.9c0,2.7-2.61,3.65-4.85,3.65m-2.22-5.56a.24.24,0,0,0-.24.24v3a.24.24,0,0,0,.24.24h2.17c1.58,0,2.39-.61,2.39-1.81,0-.77-.42-1.7-2.39-1.7Zm0-5.4a.23.23,0,0,0-.24.23v2.93a.24.24,0,0,0,.24.24h1.82a1.74,1.74,0,0,0,2-1.75c0-1-.77-1.65-2.11-1.65Z" style="fill:#fff"/></g><g style="clip-path:url(#clip-path)"><path d="M132.44,55.67h-2.66l-.88-2.59a.22.22,0,0,0-.22-.16h-5.25a.24.24,0,0,0-.23.16l-.88,2.59h-2.45l4.63-13h3.31Zm-6.39-10.76a.23.23,0,0,0-.22.17s-.26.92-.58,1.91l-1.19,3.56a.26.26,0,0,0,0,.21.23.23,0,0,0,.19.1h3.54a.21.21,0,0,0,.19-.1.23.23,0,0,0,0-.21L126.86,47c-.33-1-.58-1.87-.58-1.88a.24.24,0,0,0-.23-.17" style="fill:#fff"/></g><g style="clip-path:url(#clip-path)"><path d="M145.54,55.67H143.3l-4.51-6.62c-.69-1-1.32-2.12-1.33-2.13a.24.24,0,0,0-.2-.12h-.07a.23.23,0,0,0-.16.24s.07,1.25.07,2.44v6.18h-2.26v-13h2.45l4.3,6.31c.7,1,1.33,2.13,1.33,2.14a.24.24,0,0,0,.21.12h.06a.24.24,0,0,0,.17-.24s-.07-1.25-.07-2.44V42.65h2.25v13Z" style="fill:#fff"/></g><g style="clip-path:url(#clip-path)"><path d="M159.44,55.67h-3l-4.25-6.21a.23.23,0,0,0-.2-.1h-.07a.24.24,0,0,0-.16.22v6.08h-2.46v-13h2.46v5.83a.24.24,0,0,0,.16.22H152a.26.26,0,0,0,.2-.1l4-6H159l-4.21,5.89a.26.26,0,0,0,0,.27Z" style="fill:#fff"/></g><g style="clip-path:url(#clip-path)"><path d="M188.19,60.25H173l-6.67-11.54h0v0l.2-.35,7.4-12.82h13.36l7.61,13.17,0,0h0l-3,5.1-3.63,6.29h0ZM180.58,37.5a.15.15,0,0,0-.09,0,13.8,13.8,0,0,0-1.42,2.06l-3.32,5.76-3.33,5.76a13.88,13.88,0,0,0-1.07,2.25.11.11,0,0,0,0,.1.16.16,0,0,0,.08.06,14.3,14.3,0,0,0,2.49.2h13.3a14.3,14.3,0,0,0,2.49-.2.1.1,0,0,0,.08-.06.11.11,0,0,0,0-.1,13.88,13.88,0,0,0-1.07-2.25l-3.32-5.76-3.33-5.76a13.44,13.44,0,0,0-1.42-2.06.13.13,0,0,0-.09,0" style="fill:#fff"/></g><g style="clip-path:url(#clip-path)"><path d="M11.65,56.16a6.27,6.27,0,0,0,5-2.17l-1.82-1.87a3.85,3.85,0,0,1-3,1.24c-2.14,0-3.58-1.8-3.58-4.2S9.7,45,11.77,45a3.91,3.91,0,0,1,2.78,1.14l1.9-2a6.2,6.2,0,0,0-4.63-2A6.91,6.91,0,0,0,5,49.24a6.63,6.63,0,0,0,6.65,6.92" style="fill:#010101"/></g><g style="clip-path:url(#clip-path)"><path d="M24.62,53.41c-2.32,0-3.82-1.85-3.82-4.25s1.44-4.22,3.82-4.22,3.82,1.85,3.82,4.25S27,53.41,24.62,53.41m-.05,2.75a7,7,0,0,0,7.05-7,6.71,6.71,0,0,0-6.95-6.92,7,7,0,0,0-7,7.05,6.71,6.71,0,0,0,7,6.92" style="fill:#010101"/></g><g style="clip-path:url(#clip-path)"><path d="M42.83,55.91l2.28-7.41c.4-1.29.71-2.75.71-2.75h0s0,1.46.15,2.93l.61,7.23h3l-1.32-13.5H44.38l-2.05,6.7c-.33,1.09-.68,2.48-.68,2.48s-.36-1.39-.71-2.5l-2.07-6.68h-4l-1.31,13.5h2.8L37,48.63c.13-1.42.15-2.88.15-2.88h.05s.33,1.46.74,2.8l2.27,7.36Z" style="fill:#010101"/></g><g style="clip-path:url(#clip-path)"><path d="M61.66,55.91l2.27-7.41c.41-1.29.71-2.75.71-2.75h0s0,1.46.15,2.93l.61,7.23h3l-1.31-13.5H63.2l-2,6.7c-.33,1.09-.69,2.48-.69,2.48s-.35-1.39-.71-2.5l-2.07-6.68h-4l-1.31,13.5h2.8l.61-7.28c.12-1.42.15-2.88.15-2.88h0s.33,1.46.73,2.8L59,55.91Z" style="fill:#010101"/></g><g style="clip-path:url(#clip-path)"><polygon points="71.66 55.91 80.43 55.91 80.43 53.33 74.59 53.33 74.59 50.37 79.55 50.37 79.55 47.85 74.59 47.85 74.59 44.99 80.36 44.99 80.36 42.41 71.66 42.41 71.66 55.91" style="fill:#010101"/></g><g style="clip-path:url(#clip-path)"><path d="M90.53,46.73c0,1.27-.84,1.8-2.48,1.8H86.84V44.94h1.21c1.57,0,2.48.48,2.48,1.79m3.61,9.18-3.31-5.44a3.85,3.85,0,0,0,2.73-3.74C93.56,44,92,42.41,88,42.41h-4v13.5h2.93V51h.93l2.89,4.9Z" style="fill:#010101"/></g><g style="clip-path:url(#clip-path)"><polygon points="95.87 55.91 105.28 55.91 105.28 53.33 99.56 53.33 105.15 44.64 105.15 42.41 96 42.41 96 44.99 101.46 44.99 95.87 53.69 95.87 55.91" style="fill:#010101"/></g><g style="clip-path:url(#clip-path)"><path d="M111.25,50.35h2.17c1.32,0,2.15.4,2.15,1.46s-.66,1.57-2.15,1.57h-2.17Zm0-5.41h1.69c.94,0,1.87.3,1.87,1.42s-.8,1.51-1.74,1.51h-1.82V44.94Zm-2.93,11h5.15c2.4,0,5.08-1.09,5.08-3.89a3,3,0,0,0-2.88-3.14v0a3,3,0,0,0,2.25-3c0-2.94-2.58-3.47-4.93-3.47h-4.67v13.5Z" style="fill:#010101"/></g><g style="clip-path:url(#clip-path)"><path d="M122.49,55.91l.94-2.76h5.25l.94,2.76h3.16L128,42.41h-3.63l-4.81,13.5Zm5.33-5.28h-3.54l1.19-3.57c.33-1,.59-1.92.59-1.92s.25.91.58,1.9Z" style="fill:#010101"/></g><g style="clip-path:url(#clip-path)"><path d="M134.61,55.91h2.73V49.49c0-1.21-.08-2.45-.08-2.45s.63,1.08,1.34,2.15l4.58,6.72h2.6V42.41h-2.73v6.12c0,1.21.07,2.45.07,2.45s-.63-1.09-1.34-2.15l-4.37-6.42h-2.8Z" style="fill:#010101"/></g><g style="clip-path:url(#clip-path)"><polygon points="149.02 42.41 149.02 55.91 151.95 55.91 151.95 49.59 156.28 55.91 159.89 55.91 154.94 48.68 159.41 42.41 156.02 42.41 151.95 48.48 151.95 42.41 149.02 42.41" style="fill:#010101"/></g><g style="clip-path:url(#clip-path-24)"><rect x="180.55" y="35.39" width="6.82" height="2.28" style="fill:url(#radial-gradient)"/></g><g style="clip-path:url(#clip-path-25)"><rect x="166.16" y="35.39" width="21.16" height="22.63" style="fill:url(#radial-gradient-2)"/></g><g style="clip-path:url(#clip-path-26)"><rect x="166.21" y="48.77" width="28.73" height="11.6" style="fill:url(#radial-gradient-3)"/></g><g style="clip-path:url(#clip-path-27)"><rect x="180.58" y="35.39" width="14.42" height="24.8" style="fill:url(#radial-gradient-4)"/></g></g></g></svg>