<svg xmlns="http://www.w3.org/2000/svg" viewBox="0 0 200 100"><g id="Layer_2" data-name="Layer 2"><g id="Layer_1-2" data-name="Layer 1"><rect width="200" height="100" style="fill:none"/><g id="Logo"><path id="path439" d="M21.35,9.89V68.67H44.29c13.05,0,28.64-11.4,28.64-29.39,0-19.65-15.59-29.39-28.64-29.39Zm58,0V68.82H95.73V43.48h.15l14.54,25.34h18.9l-18.9-31.94,17.25-27h-18.9l-12.89,22h-.15v-22Zm54.43,0V68.67h25.95c9.89,0,18.89-6.15,18.89-18a15.66,15.66,0,0,0-9.6-14.24v-.15c4.5-1.35,6.45-6.15,6.45-11.7,0-8.24-7.35-14.69-18-14.69Zm16.35,13.34h5a5,5,0,0,1,5.1,5.1,4.8,4.8,0,0,1-5.1,5.1h-5ZM37.7,24.58c9.14,0,18.89,2.4,18.89,14.7S46.69,54,37.7,54ZM150.16,43h5.7a5.76,5.76,0,0,1,5.85,5.85c0,3.29-1.8,5.84-5.1,5.84v.15h-6.45Z" style="fill:#3d87c8"/></g><g id="Claim"><path id="path446" d="M24.8,89.81H21.35V79h3.3a5.4,5.4,0,0,1,.15,10.79ZM24.2,81h-.75v7h.75a3.53,3.53,0,1,0,0-7Z" style="fill:#3d87c8"/><path id="path448" d="M32.9,87.26a1.6,1.6,0,0,0,1.5,1.35,2.18,2.18,0,0,0,1.8-.75l1.34.75a3.4,3.4,0,0,1-3.14,1.5,3.3,3.3,0,1,1,0-6.6,3.19,3.19,0,0,1,3.29,3.15v.75H32.9Zm1.5-2.4a1.48,1.48,0,0,0-1.5,1.2h3a1.48,1.48,0,0,0-1.5-1.2Z" style="fill:#3d87c8"/><path id="path450" d="M43.24,89.81v-.6h0a2.3,2.3,0,0,1-2,.75c-1.5,0-2.25-.75-2.25-2.4v-4h1.65V87c0,.9.3,1.35,1.2,1.35A1.23,1.23,0,0,0,43.09,87V83.51h1.8v6.3Z" style="fill:#3d87c8"/><path id="path452" d="M48.94,90.11a1.59,1.59,0,0,1-1.8-1.8v-3h-1l.15-1.65H47V81.41l1.8-.29v2.39H50v1.65h-1.2v2.4c0,.45.15.6.6.6a2.53,2.53,0,0,0,.75-.3v1.65a1.56,1.56,0,0,1-1.2.6Z" style="fill:#3d87c8"/><path id="path454" d="M53.74,90.11a3.26,3.26,0,0,1-2.4-1l.75-1.2a2.41,2.41,0,0,0,1.65.75c.6,0,.75-.15.75-.6,0-1.05-3-.75-3-3,0-1.2,1-1.8,2.25-1.8a3.1,3.1,0,0,1,2.4.75L55.39,85a2.53,2.53,0,0,0-1.5-.45c-.3,0-.6,0-.6.45,0,.75,3.15.6,3.15,3,0,1.65-1.2,2.1-2.7,2.1Z" style="fill:#3d87c8"/><path id="path456" d="M60.79,90.11a3.3,3.3,0,1,1,0-6.6,2.91,2.91,0,0,1,2.55,1l-.9,1.2A1.94,1.94,0,0,0,60.79,85c-.9,0-1.5.75-1.5,1.8s.6,1.8,1.5,1.8a1.88,1.88,0,0,0,1.65-.9l1.2,1.2A4.1,4.1,0,0,1,60.79,90.11Z" style="fill:#3d87c8"/><path id="path458" d="M68.88,89.81V86.36c0-.9-.29-1.35-1.19-1.35a1.23,1.23,0,0,0-1.2,1.35v3.45h-1.8V78.87h1.8v5.24h0a2.3,2.3,0,0,1,2-.75c1.49,0,2.24.75,2.24,2.4v4Z" style="fill:#3d87c8"/><path id="path460" d="M73.83,87.26a1.6,1.6,0,0,0,1.5,1.35,2.18,2.18,0,0,0,1.8-.75l1.35.75a3.43,3.43,0,0,1-3.15,1.5,3.3,3.3,0,1,1,3.3-3.45v.75h-4.8Zm1.5-2.4a1.48,1.48,0,0,0-1.5,1.2h3A1.48,1.48,0,0,0,75.33,84.86Z" style="fill:#3d87c8"/><path id="path462" d="M89.28,89.81l-3.15-4.5h0v4.5H84.18V79h1.95v4.19h0l3-4.19h2.4l-3.75,5.24,4,5.55Z" style="fill:#3d87c8"/><path id="path464" d="M96,85a1.46,1.46,0,0,0-1.65,1.5v3.3h-1.8v-6.3h1.8v.75h0c.45-.75.9-.9,2-.9V85Z" style="fill:#3d87c8"/><path id="path466" d="M98.88,87.26a1.59,1.59,0,0,0,1.49,1.35,2.18,2.18,0,0,0,1.8-.75l1.35.75a3.43,3.43,0,0,1-3.15,1.5,3.3,3.3,0,1,1,3.3-3.45v.75H98.88Zm1.49-2.4a1.48,1.48,0,0,0-1.49,1.2h3A1.48,1.48,0,0,0,100.37,84.86Z" style="fill:#3d87c8"/><path id="path468" d="M109.67,89.81v-.6h0a2.44,2.44,0,0,1-2.1.75c-1.5,0-2.85-1.2-2.85-3.3s1.35-3.3,2.85-3.3a2.44,2.44,0,0,1,2.1.75h0V78.87h1.8V89.81Zm-1.5-4.8a1.66,1.66,0,0,0,0,3.3,1.66,1.66,0,0,0,0-3.3Z" style="fill:#3d87c8"/><path id="path470" d="M113.12,82.31V80.22h1.8v2.09Zm0,7.5v-6.3h1.8v6.3Z" style="fill:#3d87c8"/><path id="path472" d="M118.82,90.11a1.59,1.59,0,0,1-1.8-1.8v-3h-1l.15-1.65h.75V81.41l1.8-.29v2.39h1.5v1.65H119v2.4c0,.45.15.6.6.6a2.53,2.53,0,0,0,.75-.3v1.65a3.17,3.17,0,0,1-1.5.6Z" style="fill:#3d87c8"/><path id="path474" d="M125.57,90.11a2.44,2.44,0,0,1-2.1-.75h0V90h-1.8V79h1.8v5.24h0a2.44,2.44,0,0,1,2.1-.75c1.5,0,2.85,1.2,2.85,3.3s-1.35,3.3-2.85,3.3ZM125,85a1.66,1.66,0,0,0,0,3.3,1.66,1.66,0,0,0,0-3.3Z" style="fill:#3d87c8"/><path id="path476" d="M134.41,89.81v-.6h0a2.44,2.44,0,0,1-2.1.75c-1.49,0-2.84-1.2-2.84-3.3s1.35-3.3,2.84-3.3a2.44,2.44,0,0,1,2.1.75h0v-.6h1.8v6.3Zm-1.5-4.8a1.66,1.66,0,0,0,0,3.3,1.66,1.66,0,0,0,0-3.3Z" style="fill:#3d87c8"/><path id="path478" d="M142.21,89.81V86.36c0-.9-.3-1.35-1.2-1.35a1.23,1.23,0,0,0-1.2,1.35v3.45H138v-6.3h1.8v.6h0a2.3,2.3,0,0,1,1.95-.75c1.5,0,2.25.75,2.25,2.4v4Z" style="fill:#3d87c8"/><path id="path480" d="M149.56,89.81l-1.95-2.7h0v2.7h-2V78.87h1.8v6.89h0l1.65-2.25h2.25l-2.4,3,2.7,3.3Z" style="fill:#3d87c8"/><path id="path482" d="M162.75,89.81l-.74-2.4h-3.45l-.75,2.4h-2.1L159.31,79h2.1L165,89.81Zm-2.39-8.4h0l-1.2,4.2h2.4Z" style="fill:#3d87c8"/><path id="path484" d="M170.55,90.11a5.7,5.7,0,0,1,0-11.39,5.32,5.32,0,0,1,4.65,2.1l-1.35,1.34a3.7,3.7,0,0,0-3.3-1.49,3.44,3.44,0,0,0-3.3,3.74,3.54,3.54,0,0,0,3.3,3.75,3.85,3.85,0,0,0,3-1.2V85.31h-2l.3-1.65h3.6v3.9a5.29,5.29,0,0,1-4.95,2.55Z" style="fill:#3d87c8"/></g></g></g></svg>