<svg xmlns="http://www.w3.org/2000/svg" viewBox="0 0 200 100"><g id="Layer_2" data-name="Layer 2"><g id="Layer_1-2" data-name="Layer 1"><rect width="200" height="100" style="fill:none"/><g id="Layer_1-3" data-name="Layer 1"><g id="g9"><g id="g11"><path id="path13" d="M11.12,39.8a3.92,3.92,0,0,1,2.88.88c.65.65.95,1.73.95,3.5V66.27c0,3-.65,4.42-4.43,4.42H10V72H27V70.69H26.5c-3.75,0-4.38-1.4-4.38-4.42V44.18c0-1.77.29-2.84.94-3.49A4,4,0,0,1,26,39.8h1V38.43H10V39.8Z" style="fill:#202458;fill-rule:evenodd"/><path id="path15" d="M65.53,60.77a17.83,17.83,0,0,1-.34-2.15V48.53c-.07-5.88.74-8.81-4.41-8.78V38.42H72.62v1.33c-5.3,0-4.63,2.9-4.66,8.78V72.09l-1.69,0L40.69,45.33A19,19,0,0,1,41,47.48V64c-.14,6,.6,6.75,4.49,6.68v1.38H33.16V70.69c3.89,0,4.66-.51,4.66-7.18V47.63l0-2.58c.15-3.35-1.09-5.29-4.86-5.26V38.47H44.29Z" style="fill:#202458;fill-rule:evenodd"/><path id="path17" d="M108.41,37.78H107.1l-.06.45c-.09.66-.35,1.78-1.11,1.78a3.87,3.87,0,0,1-1.37-.38,24.12,24.12,0,0,0-9-1.85,20,20,0,0,0-14.34,5.66,17.89,17.89,0,0,0-5.15,12.85,15.11,15.11,0,0,0,5.69,11.88c3.84,3.28,8.13,4.68,14.37,4.68a23.24,23.24,0,0,0,12.75-3.2l.8-.43V60.4c0-3.75.46-4.34,3.52-4.46l.5,0V54.61h-15v1.31l.49,0c3.41.13,4.06.74,4.06,3.85V68a11.26,11.26,0,0,1-6.69,2.3,12.27,12.27,0,0,1-8.82-3.66c-2.75-2.74-4.09-6.74-4.09-11.25,0-4.87,1.3-9,4-11.68a11.31,11.31,0,0,1,8.17-3.31,14.7,14.7,0,0,1,8.52,3A10,10,0,0,1,108,48.84l.11.37h1.28Z" style="fill:#202458;fill-rule:evenodd"/></g><g id="g19"><path id="path21" d="M173.88,72a4.07,4.07,0,0,0,2.38-.71,10.94,10.94,0,0,0,7.86-1.81,16.59,16.59,0,0,0,3.06-3.21,11.39,11.39,0,0,0,1.71-3.2,14.15,14.15,0,0,0,.68-2.24,21.4,21.4,0,0,0-.8-11.17,19.47,19.47,0,0,0-.74-1.86c-1.48-3.06-3.49-6.36-6.6-8.29a13.3,13.3,0,0,1-4.34-4.52c-.54-.48-1.05-1.12-1.75-1.24a2.69,2.69,0,0,1,.45,1l0,.05a2.55,2.55,0,0,1-1.81-.84l.55-.5a2.66,2.66,0,0,0-.68-.2c-2.12-.24-3.87.73-5.75,1.21l0,.1c1.16.51,1.4,1.79,2.07,2.65.17-.2.45-.06.68-.08s.65.27,1,.18a3.07,3.07,0,0,0-.2-.75,1.23,1.23,0,0,1,.66,0c.61.35,1.59-.07,2,.75a10.86,10.86,0,0,0-2,.35c0,.26.31.47.29.73a7,7,0,0,0-1.77-.45l0,.1a6.07,6.07,0,0,0,3,1.79c1.59.37,3-.39,4.52-.12a17.56,17.56,0,0,1,8.38,9.4c.07.18.14.36.2.54A18.23,18.23,0,0,1,187,60.78a13.6,13.6,0,0,1-2.42,4.08,8.39,8.39,0,0,1-1.37,1.36,6.22,6.22,0,0,1-5.53,1.22c-.13-.09-.38-.11-.34-.33s.13-.59.19-.89a22.24,22.24,0,0,0,.4-5.3v-.23a20.23,20.23,0,0,0-1.59-7.21,25,25,0,0,0-2.26-4,9.39,9.39,0,0,0-4.21-3.46,3.17,3.17,0,0,0-3.21.55,2.18,2.18,0,0,0-.74,1.94,6.57,6.57,0,0,1-3,1,5.72,5.72,0,0,1-.83.12,3.46,3.46,0,0,1-.79,0,7.72,7.72,0,0,1-3.7-1.7c0-.54,0-1.06-.07-1.64a2,2,0,0,1-1.12-1.56l.06-.05a4.2,4.2,0,0,1,.93.45,6.91,6.91,0,0,0-.7-2.34c-.38-.16-.76-.29-1.12-.48a1.77,1.77,0,0,1-.73-1.21c.37.35,1,.23,1.29.6-.49-1.46-.5-3.13-1.31-4.46-.41-1-1.49-1.44-2.22-2.16-.29-.35-.4-.83-.92-.89s-.45-.57-.52-.88c.26,0,.48.21.7.25-.61-1.61-1.14-3.41-2.79-4.44l-.29.18a16.18,16.18,0,0,1-2,.16,2.65,2.65,0,0,1,1.18-.79,2.72,2.72,0,0,0-1.42-.52,2.9,2.9,0,0,1-1.37.59l-.06,0c0-.38-.09-.84.48-.93a3.21,3.21,0,0,0-2,0c-.16.41-.61.78-.58,1.26a8.47,8.47,0,0,1-.89,1,9.55,9.55,0,0,1,.48-2.24c-.47.18-1,.43-1.42.65a18.18,18.18,0,0,0-2.33-1.18c-.07,0-.23-.07-.2.07.69.49.42,1.42.49,2.12l-.43-.36c-.21-.53-.81-.92-.92-1.51a8.37,8.37,0,0,0-1.83.61l-.1,0A1.48,1.48,0,0,1,137,29a13.15,13.15,0,0,1-2.15-.33c-.07-.07-.13-.15-.25-.14a4,4,0,0,0-1,.65,7,7,0,0,0-1.8,2.45,1.66,1.66,0,0,1,.72.17c-.4.25-.74.66-1.13.89a9.08,9.08,0,0,0-.15,1.76,6.93,6.93,0,0,0-.91,1.39,20.48,20.48,0,0,0-.73,6.84c-.21.2-.49.33-.68.49l0,2.14h0c.09-.45.63-.7,1-1h.1c0,.49-.11,1-.12,1.46l-.61.51c-.61.53-.1,1.34-.15,2,0,.18.07.44.2.49.07-.27.3-.45.45-.69.26-.06.5-.27.74-.3a11.66,11.66,0,0,1-.53,1.54,1.91,1.91,0,0,0-.32.27.78.78,0,0,0-.22.38,48.3,48.3,0,0,0,2.07,7.29c-.57,1-.9,2.13-1.38,3.14-.07.14-.13.28-.19.43-.48,1.22-.63,2.59-1.23,3.76a4.16,4.16,0,0,0-.78-.41,3.16,3.16,0,0,0-3.28.73,2.83,2.83,0,0,0-2.07.38,2.72,2.72,0,0,0-.92,1.12,2.22,2.22,0,0,0-.16,1,2.42,2.42,0,0,0-.89,1.34,4.14,4.14,0,0,0,.83,3.18Z" style="fill:#fff;fill-rule:evenodd"/><path id="path23" d="M166.92,48.34c0,.27-.21.58,0,.81.26-.29.68-.28,1-.4a8.43,8.43,0,0,1,2.7.42,12,12,0,0,0-.61-1.05c-.48-.13-1.22.21-1.3-.5-.29-.26-.76-.08-1.06-.06a2.4,2.4,0,0,0-.71.78Z" style="fill:#fff;fill-rule:evenodd"/><path id="path25" d="M134.8,39.27h0Z" style="fill:#fff;fill-rule:evenodd"/><path id="path27" d="M138.62,48.61l.63-.61a.13.13,0,0,1,.12,0l-.05,1.17a1.71,1.71,0,0,0,1.08.4c0-.32.28-.54.41-.81s.05-.55.28-.71l.07.08a3.34,3.34,0,0,0,.23,1c0,.16.05.37.07.52a2.58,2.58,0,0,0,1.24-.27,4.78,4.78,0,0,1,.18-1.09c.1-.13-.11-.36.15-.35.15.31.41.64.56,1a4.07,4.07,0,0,0,1-2.26c-.18-.25-.46-.25-.67-.4a7.86,7.86,0,0,0-5.8.2A2.72,2.72,0,0,0,138.62,48.61Z" style="fill:#fff;fill-rule:evenodd"/><path id="path29" d="M121.91,68.31a17,17,0,0,0,0,2.37,1.23,1.23,0,0,0,.78.59l.05-.54c.13-.75-.27-1.54.15-2.17a5,5,0,0,1,.84.38,1.83,1.83,0,0,0-.71-1.92Z" style="fill:#fff;fill-rule:evenodd"/><path id="path31" d="M124.51,67.18a6.15,6.15,0,0,0-.22,4,4.84,4.84,0,0,0,.82-.63,4.44,4.44,0,0,1,.4-2.87,1.89,1.89,0,0,1,1.07,1.14,2,2,0,0,0,.32-1.64c0-.46-.5-.35-.76-.55.09-.38.08-.83.49-1l-1.26.12A5.91,5.91,0,0,0,124.51,67.18Z" style="fill:#fff;fill-rule:evenodd"/><path id="path33" d="M127.1,70.81c.06.09,0,.26.11.28.16-.88.87-1.45,1.26-2.23.19-.26.18-.63.48-.83.41,0,.71.3,1.11.33.12.09-.07.17-.08.28a10.8,10.8,0,0,0-.3,2h.07a10.7,10.7,0,0,0,1.35-1.89l.07-.6c.09-.72-.68-1.18-1.19-1.47l.45-.58-.63-.22a2.85,2.85,0,0,0-1.91,1,8.62,8.62,0,0,0-.79,3.93Z" style="fill:#fff;fill-rule:evenodd"/><path id="path35" d="M129.93,64.57c.24.08.46-.12.7,0a6.45,6.45,0,0,1,2.71,1.54l.86,2.19.43-1.35-.28-.74c-.25-.52-.91-.48-1.36-.5-.19-.21,0-.46.07-.65.22-.75-.69-.71-1.06-1,0-.45-.52-.3-.83-.34l-.1-.12a.21.21,0,0,0-.31,0s-.06-.06,0-.11l-.23.05a1.48,1.48,0,0,0-.56,1.08Z" style="fill:#fff;fill-rule:evenodd"/><path id="path37" d="M130.54,62.16a.71.71,0,0,0,.22.36c.47-.13.93-.45,1.47-.26a8.39,8.39,0,0,0,2.3,1.61l.3,0c.19.06.4.07.52.28s-.17.45-.27.68c.48.35.29,1,.58,1.39l.76-1c-.18-.44,0-1.2-.69-1.24a.64.64,0,0,1-.37-.61c-.45-.41-1-.58-1.47-1s-.58-.75-1.06-.86a4,4,0,0,0-1.06-.35C131.07,61,131,61.83,130.54,62.16Z" style="fill:#fff;fill-rule:evenodd"/><path id="path39" d="M131.55,60.09l.13.2c.52,0,1-.26,1.51-.25.35.21.8.2,1.16.38a4.16,4.16,0,0,0,1,1.09c.86.12,1.33,1,1.62,1.71v-.33a2.19,2.19,0,0,0-.18-1.38c-.21-.21-.51-.35-.73-.54a.44.44,0,0,1,0-.32,6.72,6.72,0,0,0-1.21-.81c-.56-.81-1.63-.59-2.48-.81l-.85,1.06Z" style="fill:#fff;fill-rule:evenodd"/><path id="path41" d="M131.53,52.39a9,9,0,0,1,.27,1.08c.3-.65.88-.94,1.39-1.48a2.57,2.57,0,0,0-1-.36v0C132,51.84,131.62,52.07,131.53,52.39Z" style="fill:#fff;fill-rule:evenodd"/><path id="path43" d="M133.44,55.84l.47-.48a2.93,2.93,0,0,0,.94-1.66,1.36,1.36,0,0,0-1.1,0,13,13,0,0,0-.31,2.09Z" style="fill:#fff;fill-rule:evenodd"/><path id="path45" d="M133.79,57.32a3,3,0,0,0,2-.22l.59-1.89a1.52,1.52,0,0,0-.56,0A4.62,4.62,0,0,1,133.79,57.32Z" style="fill:#fff;fill-rule:evenodd"/><path id="path47" d="M134,50.62a4.17,4.17,0,0,0,2.07,1.69c-.09-.88-.85-1.49-1.24-2.24l0-.26a3.93,3.93,0,0,0-1-.65,5,5,0,0,0,.18,1.46Z" style="fill:#fff;fill-rule:evenodd"/><path id="path49" d="M136.56,57.41a3.75,3.75,0,0,0,1.67-.16c.75-.18,1.16-1,1.41-1.64h-.93l-1,1a8.14,8.14,0,0,0-1.14.81Z" style="fill:#fff;fill-rule:evenodd"/><path id="path51" d="M136.45,49.67a6.1,6.1,0,0,0,1,2.27l.13-1.57Z" style="fill:#fff;fill-rule:evenodd"/><path id="path53" d="M139.9,53.75a8.15,8.15,0,0,0-.22-1.67c-.32-.21-.76-.19-1.08-.39A3.07,3.07,0,0,0,139.9,53.75Z" style="fill:#fff;fill-rule:evenodd"/><path id="path55" d="M138.94,59.09a10.21,10.21,0,0,0,1.91-.78c.39-.55,1-1.06,1.06-1.71-.48.13-.9,0-1.35.2a3.44,3.44,0,0,1-1,1.41C139.51,58.56,139.12,58.81,138.94,59.09Z" style="fill:#fff;fill-rule:evenodd"/><path id="path57" d="M140,60.38l.79,1a1.58,1.58,0,0,0,1.31-.15l-.28-.93A3.73,3.73,0,0,1,140,60.38Z" style="fill:#fff;fill-rule:evenodd"/><path id="path59" d="M141.28,52.94l.31,1.39a2.83,2.83,0,0,0,.87-2.39,3.33,3.33,0,0,1-1.18,1Z" style="fill:#fff;fill-rule:evenodd"/><path id="path61" d="M143.35,55.39a1.16,1.16,0,0,0,.18.55c.82.29.91,1.29,1.67,1.67a1.88,1.88,0,0,0,1.49-.26c-.33-.36-.7-.62-1-1-.22-.1-.44-.24-.43-.51l-1.89-.45Z" style="fill:#fff;fill-rule:evenodd"/><path id="path63" d="M144,60.35a2.38,2.38,0,0,0,1.34.73c-.08-.11.06,0,.08-.07l-.64-1.38c-.31,0-.64.07-.93,0a2.51,2.51,0,0,0,.15.67Z" style="fill:#fff;fill-rule:evenodd"/><path id="path65" d="M145.12,53.88a8.14,8.14,0,0,1-.5-2.27c-.32.38-.64.62-.94,1C143.55,53.4,144.66,53.59,145.12,53.88Z" style="fill:#fff;fill-rule:evenodd"/><path id="path67" d="M146.4,53.17c.38.49,1.21.32,1.68.17-.23-.38-.94-.6-1.06-1a8.94,8.94,0,0,0-.46-2.09C146.2,51.14,145.75,52.2,146.4,53.17Z" style="fill:#fff;fill-rule:evenodd"/><path id="path69" d="M147.07,55.39c1.05.77,2.08,1.66,3.55,1.33.1-.07.28-.06.3-.19-.43-.28-.89-.49-1.33-.74l-.51-.73h-.23a9.48,9.48,0,0,1-1.78.33Z" style="fill:#fff;fill-rule:evenodd"/><path id="path71" d="M147.09,63.91h.07a5.56,5.56,0,0,1,2.12-.88c.2.07.08.29.26.37.45-.18,1-.14,1.46-.3a3.15,3.15,0,0,1,1.46.27c.36.47,1,.42,1.49.74l-.07-.74c-1-1.14-2.5-1.23-3.91-1.2l0-.15a2.45,2.45,0,0,0-1,.22,5.35,5.35,0,0,0-1.32.38A10.72,10.72,0,0,0,147.09,63.91Z" style="fill:#fff;fill-rule:evenodd"/><path id="path73" d="M147.93,51a1.76,1.76,0,0,0,1.71.81,2,2,0,0,1-.78-1.21c.1-.93-.93-1-1.43-1.49A6.07,6.07,0,0,0,147.93,51Z" style="fill:#fff;fill-rule:evenodd"/><path id="path75" d="M147.82,65.77H148c.56-.35,1.37-.09,1.91-.46.31-.15.33.27.54.38.51.32.58,1.26,1.3,1,.87.45.65,1.52.69,2.29l.81-.5c-.08-.41.15-.91-.11-1.26s-.75-.49-1-.86c.32-.54-.4-.79-.55-1.18l.05,0,1.11.14a1.73,1.73,0,0,1,.63,1c.87.15,1.08,1.14,1.39,1.77.18-.43.25-.89.43-1.31,0-.35-.45-.35-.68-.51a1.9,1.9,0,0,0-.78-1.36,11.68,11.68,0,0,0-2.88-.78l-.88.27c-.49.12-1,0-1.37.31-.55,0-.59.64-.73,1Z" style="fill:#fff;fill-rule:evenodd"/><path id="path77" d="M148.38,61.44l.2.09c.43-.2.86-.43,1.31-.6.71-.19,1.26.6,1.84.1.22-.16.41.07.58.2.25.46.84.43,1.29.56-.23-.6-.5-1.42-1.27-1.52a6.54,6.54,0,0,1-1-.3c-.81-.89-1.34.73-2.22.33A2.42,2.42,0,0,0,148.38,61.44Z" style="fill:#fff;fill-rule:evenodd"/><path id="path79" d="M148.58,66.55c.34.29.68.77,1.21.71.65.3.38,1.16.74,1.61l.37-.33,0,0,0-.06,0,0a2,2,0,0,0-.23-1.24c-.24-.17-.52,0-.75-.15a1,1,0,0,0-.49-.71c-.16-.13-.38,0-.57,0l-.33.12Z" style="fill:#fff;fill-rule:evenodd"/><path id="path81" d="M149.89,53.75a5.46,5.46,0,0,0,1.56,1.34,2.46,2.46,0,0,0,1.49.14A9,9,0,0,1,151.7,54c-.14-.21-.18-.47-.38-.66a3.09,3.09,0,0,0-1.43.41Z" style="fill:#fff;fill-rule:evenodd"/><path id="path83" d="M150.47,50c.49.6,1.24.36,1.92.38V50.3l-1-.88a2.78,2.78,0,0,0-.87.57Z" style="fill:#fff;fill-rule:evenodd"/><path id="path85" d="M131.12,40.09l.61,1.89c0-1.07.48-2,.38-3l.45-.68-1,.3A3.52,3.52,0,0,0,131.12,40.09Z" style="fill:#fff;fill-rule:evenodd"/><path id="path87" d="M131.53,36.81l.83-.48V35.1a4.35,4.35,0,0,0-.81.85Z" style="fill:#fff;fill-rule:evenodd"/><path id="path89" d="M148.58,38.73a1.15,1.15,0,0,1-.75.37,3.56,3.56,0,0,0,.3-2.84,6,6,0,0,0,.71-.25l0,0,.58-.5c.77-.53.48-1.52.76-2.27-.38-.59-.49-1.3-1-1.8h0c-.43-.55-1.21-.49-1.8-.76-.78-.26-1.38.27-1.93.63-.24,0-.1.36-.36.35a8.89,8.89,0,0,0-.43,1.23,4.25,4.25,0,0,0-3,.56,4.35,4.35,0,0,0-1.49-.53c-.38-.08-.81.06-1.08-.15-.4-.45-.49-1.27-1.17-1.39-.24-.08-.29-.34-.29-.58-.46-.07-.86-.28-1.3-.37-.67-.31-1.2.18-1.71.5-.22.1-.47.13-.68.25a9.57,9.57,0,0,0-1,1.84,3.64,3.64,0,0,0,.58,1.46,3,3,0,0,0,1.64,1.49,6.08,6.08,0,0,0,0,3.33h0l0,0a.56.56,0,0,1-.29,0h0a4.62,4.62,0,0,0,1.39,2.64c.27.09.21.42.32.63a.42.42,0,0,1,0,.37A8.23,8.23,0,0,0,132.13,44c-.34.16-.19.63-.22.95a8.1,8.1,0,0,1,3-1.26,4.77,4.77,0,0,1,1.46,0l0,.9c-1.25.66-2.62,1-3.69,2.11a3.81,3.81,0,0,0,.06,1l1-.78a11.5,11.5,0,0,1,3-1.69,3.57,3.57,0,0,0,1,.91,7.22,7.22,0,0,1,2.07-.91c.39-.23,1,0,1.26-.48l.18-.95s-.05-.07-.1-.05a1.47,1.47,0,0,1-.78-1.36,1.5,1.5,0,0,1-.56.15c-.16,0-.32-.09-.4-.26s-.11-.52.1-.68a4.11,4.11,0,0,1,2.43-.38c.64.09,1.56.06,1.78.81,0,.22,0,.47-.23.61s-.49,0-.7-.1a1.76,1.76,0,0,1-1,1.26l.07.61c.08.27.1.72.53.63a9,9,0,0,1,2.75,1.31,6.21,6.21,0,0,0,.74-.94A13.75,13.75,0,0,1,150,48.16l.06-.89a14.43,14.43,0,0,0-4-2.44,6.15,6.15,0,0,0,.13-.86,10.24,10.24,0,0,1,4.63,1.41l0-.75A10.26,10.26,0,0,0,146,43.32a.46.46,0,0,1-.07-.33,2.36,2.36,0,0,0,1.64-1.77c.43-.49,1-1,.9-1.76l.06-.19A.78.78,0,0,0,148.58,38.73Z" style="fill:#fff;fill-rule:evenodd"/><path id="path91" d="M150.05,41.42l.86-.27.09-.48c.24-.7-.27-1.23-.53-1.79l-.42,2.54Z" style="fill:#fff;fill-rule:evenodd"/><path id="path93" d="M152.22,44.75c.41.45.81,1.18,1.54,1a5.52,5.52,0,0,0-.33-.83c-.19-.22-.25-.85-.63-.63-.29-.19-.36-.51-.54-.76A7.58,7.58,0,0,0,152.22,44.75Z" style="fill:#fff;fill-rule:evenodd"/><path id="path95" d="M152.37,47.83c.16.22.2.5.35.7a1.7,1.7,0,0,0,1.05.13c.32-.07.52.27.81.07-.36-.23-.58-.65-.93-.95S152.8,47.74,152.37,47.83Z" style="fill:#fff;fill-rule:evenodd"/><path id="path97" d="M152.92,52.71a4.12,4.12,0,0,0,2.62.71c.1-.06.28,0,.3-.17a16.06,16.06,0,0,0-1.85-.94c-.35-.53-.8.14-1.24.1C152.76,52.53,152.88,52.63,152.92,52.71Z" style="fill:#fff;fill-rule:evenodd"/><path id="path99" d="M155.11,62l.16.33c.16,1.1.85,2.1.47,3.3.32.22.41.59.61.88h.05a7,7,0,0,0-.05-2.77C156.44,62.9,155.6,62.42,155.11,62Z" style="fill:#fff;fill-rule:evenodd"/><path id="path101" d="M155.29,51.23a2.36,2.36,0,0,0,2.05.25,6.67,6.67,0,0,1-1.17-.75Z" style="fill:#fff;fill-rule:evenodd"/><path id="path103" d="M157.88,54.46a1.17,1.17,0,0,0,.56,1,2.41,2.41,0,0,0,.33-.78,2,2,0,0,0-.76-1.17A2.77,2.77,0,0,0,157.88,54.46Z" style="fill:#fff;fill-rule:evenodd"/><path id="path105" d="M157.92,59.24c-.08.5.47.56.7.83s-.13.39-.13.61a2.87,2.87,0,0,1,.63,1.79,17.82,17.82,0,0,0,.49-1.91c0-.46-.78-.37-.66-.88a2.34,2.34,0,0,0-.18-1.52c0-.07-.14-.22-.22-.18C158.36,58.42,157.88,58.72,157.92,59.24Z" style="fill:#fff;fill-rule:evenodd"/><path id="path107" d="M159.36,56.75l.54,1.06c.24,0,.4-.27.59-.43.15-.45-.24-.73-.36-1.09s0-.58-.18-.81c-.13-.08-.29-.22-.45-.17l-.14,1.44Z" style="fill:#fff;fill-rule:evenodd"/><path id="path109" d="M160.06,54a3,3,0,0,1,1.15,1.1c.37,1.08,1,2,1.39,3.08.16.73.29,1.37.49,2.09.07.18,0,.55.32.52a23.29,23.29,0,0,0,.26-2.39,3.28,3.28,0,0,0-.94-.71v-.07c0-.18.19-.39.41-.36s.38-.21.25-.4c-.54-.54-.51-1.48-1.39-1.65a.8.8,0,0,1-.4-.74A2.57,2.57,0,0,0,160.06,54Z" style="fill:#fff;fill-rule:evenodd"/><path id="path111" d="M160.56,59.64c.54.5.35,1.21.31,1.87-.08.4.42.17.58.38a2.34,2.34,0,0,1,0,1.71,10.77,10.77,0,0,0,.83-1.28c0-.18.22-.26.21-.48s-.26-.17-.41-.2-.26-.12-.22-.29a2.56,2.56,0,0,0-.09-1.68c-.12-.43.06-1-.14-1.38-.34.46-1.34.57-1.09,1.35Z" style="fill:#fff;fill-rule:evenodd"/><path id="path113" d="M161.54,52.19c.94.94,1.62,1.89,2.63,2.81a11.72,11.72,0,0,0,0-1.19,2.74,2.74,0,0,0-.66-.7C162.72,53,162.33,52,161.54,52.19Z" style="fill:#fff;fill-rule:evenodd"/><path id="path115" d="M164,57.19a1.62,1.62,0,0,0,.11.28,14.16,14.16,0,0,1,1.08,2.08c-.08-.77.44-1.74-.25-2.34-.1-.25-.41-.16-.61-.14Z" style="fill:#fff;fill-rule:evenodd"/><path id="path117" d="M166.51,64.86c.3.14.68-.1,1-.27a.88.88,0,0,1,.69.22c.08.17,0,.33,0,.48a6.2,6.2,0,0,1,1.81.78l.18-.18a1.25,1.25,0,0,0-.65-1c-.22-.12-.55,0-.7-.25a1.16,1.16,0,0,0,.09-.61,1.48,1.48,0,0,1-.85-.27c-.18,0-.34-.2-.49,0-.52.36-.55.88-1.06,1.13Z" style="fill:#fff;fill-rule:evenodd"/><path id="path119" d="M167.25,51.65a1.86,1.86,0,0,0,.76-.34c.7-.64,1.72-.21,2.54-.22a6.63,6.63,0,0,0-.58-.81,2.51,2.51,0,0,0-.9-.25c-.72-.42-1.2.28-1.75.63A1.19,1.19,0,0,0,167.25,51.65Z" style="fill:#fff;fill-rule:evenodd"/><path id="path121" d="M167.27,53.81s0-.06,0-.07,0,.28.15.32a5.42,5.42,0,0,0,.78-.5c.7,0,1.12-.68,1.81-.68a10.66,10.66,0,0,1,3.32,1,2.29,2.29,0,0,0-1.26-1.6.87.87,0,0,0-.85.25c-.7.44-.33-.64-.83-.66a5.23,5.23,0,0,1-2,.36c-.42.15-.72.54-1.19.5a2.6,2.6,0,0,0,.05,1.08Z" style="fill:#fff;fill-rule:evenodd"/><path id="path123" d="M167.76,56.15c.21.23.58.19.9.23l.91-.35c0-.17-.27-.21-.21-.4.25-.28.6-.09.92-.2s.89-.51,1.33-.18c0,0,0,.13,0,.18-.14.32.1.52.35.65.51.1,1,.57,1.51.36a10.12,10.12,0,0,0-.27-1.24c-.43-.08-.74-.43-1.14-.58a.86.86,0,0,1-.63.27c-.81-.19-1.78-.69-2.59-.18-.3.36-.83.26-1.22.41A4.27,4.27,0,0,0,167.76,56.15Z" style="fill:#fff;fill-rule:evenodd"/><path id="path125" d="M168.1,62.39c-.06.18-.24.48.08.56.68,0,1.54-.32,2.07.2.17.14.09.42.08.6l.88.74a7.32,7.32,0,0,0,.25-1.32,1.48,1.48,0,0,0-.53-.88c-.58,0-.92-.68-1.54-.59-.32-.08-.6.21-.93.21-.15.15-.23.33-.36.48Z" style="fill:#fff;fill-rule:evenodd"/><path id="path127" d="M168.35,57.45c.14.28.3.74.56.77a3,3,0,0,1,2.22-.15c.23,0,.23.31.18.48.36.21.79.37,1.17.61l-.11-.63c0-.69-.88-.75-.94-1.42A4.12,4.12,0,0,0,169.2,57c-.25.22-.59.19-.89.26C168.29,57.32,168.34,57.37,168.35,57.45Z" style="fill:#fff;fill-rule:evenodd"/><path id="path129" d="M168.53,60.85c.41-.12.67-.57,1.12-.61a2,2,0,0,1,1.69.86c.25.17.2.6.52.6a10.9,10.9,0,0,1,.06-1.51c-.45-.74-1.53-.17-1.95-1l-.77.05c-.56.13-.41.79-.49,1.23-.06.13-.19.24-.18.41Z" style="fill:#fff;fill-rule:evenodd"/><path id="path131" d="M172.39,65.44c.33.65,1,1.15,1.11,1.89a3.16,3.16,0,0,0,.4-.65c0-.21-.25-.21-.35-.38s.06-.51.1-.75a2,2,0,0,0-.83-1Z" style="fill:#fff;fill-rule:evenodd"/><path id="path133" d="M173.69,63.78l.75,1a2.65,2.65,0,0,0,.2-1.89c-.07-.12-.21-.31-.4-.22-.28.29-.32.74-.55,1.08Z" style="fill:#fff;fill-rule:evenodd"/><path id="path135" d="M170.6,35a2.35,2.35,0,0,0,.86.28,1.17,1.17,0,0,1,.78-.13c.39.26.87,0,1.32,0a5.13,5.13,0,0,0-1.32-.83C171.65,34.46,171.18,34.88,170.6,35Z" style="fill:#fff;fill-rule:evenodd"/><path id="path137" d="M174.72,36c.55.06.95.55,1.33,1a1.85,1.85,0,0,1,1.11.76l-.18-.56a3.54,3.54,0,0,0-.82-1.43A4,4,0,0,0,174.72,36Z" style="fill:#fff;fill-rule:evenodd"/><path id="path139" d="M135.48,31.42l.31,0c.82.41,2.14.62,2.22,1.8a6.52,6.52,0,0,0-2.29,1.44c-.51-.51-1.53-.23-1.7-1.13.16-.85.47-1.92,1.46-2.14Z" style="fill:#f26722;fill-rule:evenodd"/><path id="path141" d="M136.27,36.74c1-.08,1.88,0,2.87,0a1.19,1.19,0,0,1,.61.56c0,1.13-.38,2.21-.43,3.38a1.52,1.52,0,0,0-.95,1,7.52,7.52,0,0,0-1.12.52,1.08,1.08,0,0,1,.16-1.18c.41-.58,1.47-.45,1.38-1.36.28-.44,0-1,0-1.47s-.21.11-.38.1a1.37,1.37,0,0,1-1-.07c-.22-.23-.49-.42-.56-.74a1.62,1.62,0,0,1-.78-.68Z" style="fill:#f26722;fill-rule:evenodd"/><path id="path143" d="M137.43,43.59c.45.06.92-.14,1.31.08-.08.15-.3.21-.48.25l-.7.33C137.29,44.19,137.44,43.77,137.43,43.59Z" style="fill:#f26722;fill-rule:evenodd"/><path id="path145" d="M139.27,34.82c.45-.15.94-.45,1.42-.31a6.64,6.64,0,0,0-.88,1.22l-1.44,0A2,2,0,0,1,139.27,34.82Z" style="fill:#f26722;fill-rule:evenodd"/><path id="path147" d="M143.49,34.47c.59-.1.56.67,1.11.71.09.12.23.24.18.43a9.87,9.87,0,0,1-1.14.14c-.47-.26-.17-1.08-.91-1,0-.06-.13-.18,0-.23a1.86,1.86,0,0,1,.78,0Z" style="fill:#f26722;fill-rule:evenodd"/><path id="path149" d="M143.11,37.29a1.45,1.45,0,0,1,1-.48l2.72.06c.12.1-.1.2-.1.32-.17.16-.42.2-.56.35-.36,0-.33.43-.58.61-.39.39-1,.21-1.41.15a1.2,1.2,0,0,1-.41-.46l-.13.13c.16.59.12,1.24.23,1.84l.66.43c0,1,1.14.7,1.64,1.24a3,3,0,0,1-.6.93,3.52,3.52,0,0,0-1.34-.81c0-.56-.66-.9-1-1.18-.09-1-.11-2.08-.28-3.08Z" style="fill:#f26722;fill-rule:evenodd"/><path id="path151" d="M144.09,43.77h1.27l-.16.66-1.26-.54c0-.1.08-.13.15-.12Z" style="fill:#f26722;fill-rule:evenodd"/><path id="path153" d="M146.36,31.87l.94-.3a9.61,9.61,0,0,1,1.53.93A3.69,3.69,0,0,1,149,35c-.28.31-.9,0-1.13.5h0a4.54,4.54,0,0,0-2.25-2.32,2,2,0,0,1,.81-1.29Z" style="fill:#f26722;fill-rule:evenodd"/><path id="path155" d="M168.29,71.88h5.61a4.12,4.12,0,0,0,2.37-.72,11,11,0,0,0,7.87-1.8,16.3,16.3,0,0,0,3.05-3.22A11.37,11.37,0,0,0,188.91,63a15,15,0,0,0,.68-2.25,21.3,21.3,0,0,0-.81-11.17c-.22-.64-.46-1.26-.73-1.86-1.48-3.05-3.5-6.35-6.6-8.29a13.09,13.09,0,0,1-4.34-4.51c-.54-.49-1.06-1.13-1.75-1.24a2.65,2.65,0,0,1,.45,1l0,.06a2.59,2.59,0,0,1-1.82-.84l.56-.51a3.81,3.81,0,0,0-.68-.2c-2.13-.24-3.87.74-5.75,1.21l0,.11c1.15.51,1.39,1.78,2.07,2.64.16-.2.45,0,.68-.07s.65.26,1,.18a2.65,2.65,0,0,0-.19-.76,1.47,1.47,0,0,1,.66,0c.61.36,1.59-.06,2,.76a11.82,11.82,0,0,0-2,.34c0,.27.3.48.28.74a6.48,6.48,0,0,0-1.77-.45l0,.09a6,6,0,0,0,3,1.8c1.59.37,3-.39,4.52-.13a17.6,17.6,0,0,1,8.38,9.4c.07.18.13.36.19.55A18.05,18.05,0,0,1,187,60.7a13.62,13.62,0,0,1-2.41,4.09,8.79,8.79,0,0,1-1.38,1.35,6.18,6.18,0,0,1-5.53,1.22c-.12-.08-.38-.11-.34-.33s.14-.59.2-.89a22.69,22.69,0,0,0,.4-5.29,1.93,1.93,0,0,1,0-.24,20.18,20.18,0,0,0-1.59-7.2,25.82,25.82,0,0,0-2.27-4A9.36,9.36,0,0,0,169.84,46a3.16,3.16,0,0,0-3.2.56,2.17,2.17,0,0,0-.74,1.93,6.5,6.5,0,0,1-3,1c-.27,0-.55.12-.83.12a5,5,0,0,1-.78,0,7.77,7.77,0,0,1-3.7-1.7c0-.55-.06-1.06-.08-1.64a2,2,0,0,1-1.11-1.56l0-.06a5.41,5.41,0,0,1,.94.45,7.06,7.06,0,0,0-.71-2.34c-.38-.16-.76-.28-1.11-.47A1.8,1.8,0,0,1,154.8,41c.37.36,1,.23,1.3.61-.5-1.46-.51-3.13-1.32-4.46-.41-1-1.48-1.44-2.22-2.17-.28-.34-.4-.83-.91-.88s-.45-.58-.53-.88a7.24,7.24,0,0,1,.71.25c-.61-1.62-1.15-3.41-2.8-4.44l-.28.18c-.64.09-1.33.13-2,.16a2.66,2.66,0,0,1,1.19-.79,2.82,2.82,0,0,0-1.42-.53,2.9,2.9,0,0,1-1.38.6l0,0c0-.38-.1-.84.47-.94a3.36,3.36,0,0,0-2,0c-.16.41-.6.78-.58,1.26a7.68,7.68,0,0,1-.89,1,10,10,0,0,1,.48-2.23c-.47.17-1,.43-1.41.65a21.29,21.29,0,0,0-2.33-1.19c-.08,0-.24-.06-.2.07.68.5.42,1.42.49,2.13l-.43-.36c-.21-.54-.82-.92-.92-1.51a7.37,7.37,0,0,0-1.84.61l-.09.05a1.49,1.49,0,0,1,1.15.77,13.17,13.17,0,0,1-2.14-.32c-.07-.07-.14-.16-.25-.15a3.82,3.82,0,0,0-1,.66,7,7,0,0,0-1.81,2.44,1.58,1.58,0,0,1,.73.18c-.4.24-.75.65-1.14.88a10.14,10.14,0,0,0-.15,1.77,8.23,8.23,0,0,0-.91,1.38,20.8,20.8,0,0,0-.73,6.85,6.58,6.58,0,0,1-.68.48l0,2.15H129c.1-.46.64-.71,1-1h.11c-.05.48-.12,1-.13,1.46l-.61.5c-.61.54-.09,1.34-.15,2,.05.18.08.44.21.48a2.68,2.68,0,0,1,.45-.68c.26-.07.49-.28.73-.31a9.78,9.78,0,0,1-.53,1.55,1.74,1.74,0,0,0-.32.26.79.79,0,0,0-.21.39,47.48,47.48,0,0,0,2.07,7.29c-.58,1-.91,2.12-1.39,3.13-.07.14-.13.29-.19.43-.48,1.22-.63,2.59-1.23,3.76a4.37,4.37,0,0,0-.77-.41,3.16,3.16,0,0,0-3.28.74,2.86,2.86,0,0,0-2.08.37,2.92,2.92,0,0,0-.92,1.13,2.32,2.32,0,0,0-.16,1,2.38,2.38,0,0,0-.88,1.33,4.16,4.16,0,0,0,.83,3.19Z" style="fill:#fff;fill-rule:evenodd"/><path id="path157" d="M188.78,49.53c-.22-.64-.46-1.26-.73-1.86-1.48-3.05-3.5-6.35-6.6-8.28a13.2,13.2,0,0,1-4.34-4.52,4,4,0,0,0-1.75-1.24,2.62,2.62,0,0,1,.45,1l0,.05a2.59,2.59,0,0,1-1.82-.84l.56-.51a3.11,3.11,0,0,0-.68-.19c-2.13-.25-3.87.73-5.75,1.2l0,.11c1.15.51,1.39,1.78,2.07,2.64.16-.2.45,0,.68-.07s.65.26,1,.18a2.83,2.83,0,0,0-.19-.76,1.47,1.47,0,0,1,.66,0c.61.36,1.59-.06,2,.76a11.82,11.82,0,0,0-2,.34c0,.27.3.48.28.74a6.48,6.48,0,0,0-1.77-.45l0,.09a6,6,0,0,0,3,1.8c1.59.37,3-.39,4.52-.13a17.67,17.67,0,0,1,8.38,9.4c.07.18.13.37.19.55A18.05,18.05,0,0,1,187,60.7a13.62,13.62,0,0,1-2.41,4.09,8.37,8.37,0,0,1-1.38,1.35,6.18,6.18,0,0,1-5.53,1.22c-.12-.08-.38-.1-.34-.32s.14-.59.2-.9a22.69,22.69,0,0,0,.4-5.29,1.85,1.85,0,0,1,0-.23,20.23,20.23,0,0,0-1.59-7.21,25.82,25.82,0,0,0-2.27-4A9.34,9.34,0,0,0,169.84,46a3.13,3.13,0,0,0-3.2.55,2.17,2.17,0,0,0-.74,1.93,6.5,6.5,0,0,1-3,1c-.27,0-.55.12-.83.12a5,5,0,0,1-.78,0,7.77,7.77,0,0,1-3.7-1.7c0-.55-.06-1.06-.08-1.64a2,2,0,0,1-1.11-1.56l0-.06a4.81,4.81,0,0,1,.94.46,7,7,0,0,0-.71-2.35,10,10,0,0,1-1.11-.47A1.8,1.8,0,0,1,154.8,41c.37.36,1,.23,1.3.61-.5-1.46-.51-3.13-1.32-4.46-.41-1-1.48-1.44-2.22-2.17-.28-.34-.4-.82-.91-.88s-.45-.58-.53-.88a7.24,7.24,0,0,1,.71.25c-.61-1.62-1.15-3.41-2.8-4.44l-.28.18a18.68,18.68,0,0,1-2,.16,2.74,2.74,0,0,1,1.19-.79,2.82,2.82,0,0,0-1.42-.53,2.9,2.9,0,0,1-1.38.6l0,0c0-.38-.1-.84.47-.93a3.21,3.21,0,0,0-2,0c-.16.41-.6.77-.58,1.25a7.68,7.68,0,0,1-.89,1,10.11,10.11,0,0,1,.48-2.23c-.47.18-1,.43-1.41.65a21.29,21.29,0,0,0-2.33-1.19c-.08,0-.24-.06-.2.07.68.5.42,1.42.49,2.13l-.43-.36c-.21-.54-.82-.92-.92-1.51a7.37,7.37,0,0,0-1.84.61l-.09.05A1.48,1.48,0,0,1,137,29a14.4,14.4,0,0,1-2.14-.33c-.07-.07-.14-.16-.25-.15a3.82,3.82,0,0,0-1,.66,7,7,0,0,0-1.81,2.44,1.87,1.87,0,0,1,.73.18c-.4.24-.75.65-1.14.88a10.14,10.14,0,0,0-.15,1.77,8.23,8.23,0,0,0-.91,1.38,20.8,20.8,0,0,0-.73,6.85,6.58,6.58,0,0,1-.68.48l0,2.15H129c.1-.46.64-.71,1-1h.11c-.05.48-.12,1-.13,1.46l-.61.5c-.61.54-.09,1.34-.15,2,.05.18.08.44.21.48a2.68,2.68,0,0,1,.45-.68c.26-.07.49-.27.73-.31a9.78,9.78,0,0,1-.53,1.55,1.74,1.74,0,0,0-.32.26.83.83,0,0,0-.21.39,47.17,47.17,0,0,0,2.07,7.29c-.58,1-.91,2.12-1.39,3.13-.07.14-.13.29-.19.43a39.34,39.34,0,0,1-1.23,3.76,4.37,4.37,0,0,0-.77-.41,3.18,3.18,0,0,0-3.28.74,2.86,2.86,0,0,0-2.08.37,2.92,2.92,0,0,0-.92,1.13,2.34,2.34,0,0,0-.16,1,2.38,2.38,0,0,0-.88,1.33,4.15,4.15,0,0,0,.83,3.19h18.57a6.29,6.29,0,0,1-.71-1.17c-.4-.6-.13-1.45-.17-2.14.38-.76.76-1.53,1.19-2.28l.27-.44.85-.33c.45,0,.83-.32,1.26-.21.58.58.58-.57,1.14-.63,1.3-.16,2.6,0,3.33,1.06,0,.15.24.15.18.29s-.33-.06-.5-.06c-.8-.19-1.74-.7-2.53-.25,0,.19-.07.38-.11.57s-.07.4-.09.59a3.09,3.09,0,0,1,1.34.91,2.1,2.1,0,0,1,1.31-.91,3,3,0,0,1,1.26.37c.67.62.34,1.65.28,2.43.6.34,1.26.53,1.87.85a3,3,0,0,1-1,.49l-1-.2c-.11-.09-.32-.09-.36-.23a5.13,5.13,0,0,0-1,1.29h14.4a6.86,6.86,0,0,0-.68-1.17,6.26,6.26,0,0,1-.21-2.16l1.35-2a12.22,12.22,0,0,1,2.36-.15l.12-.06c.33-.23.43-.76.93-.69a2.66,2.66,0,0,1,2.21.55,1,1,0,0,1-.06.14c-.28.44-.8-.05-1.18.08-.16.17.08.37.11.56s-.14.17-.23.2a.71.71,0,0,1-.63-.2c-.05-.05,0-.12-.1-.13a3.25,3.25,0,0,0-.53,1,2.57,2.57,0,0,1,.68.76c.24.34-.19.6-.27.91a.09.09,0,0,1-.16,0c-.23-.13-.41-.44-.66-.36-.21.94.08,1.87-.05,2.81a10,10,0,0,0,1.34,0l.18-2a6.37,6.37,0,0,1,1.84-3.33c1-.66,1.58.64,2.3,1.09.11,0,.07.15.12.22,0,.22-.23.3-.38.36-.44.16-.76-.32-1-.61-.26.29-.38.66-.68.88l.1,0a2.22,2.22,0,0,1,.76,1.17,1.31,1.31,0,0,1-.63,1,10.77,10.77,0,0,1-.7-1.51s0,0,0,0c-.58.16-.74.81-.83,1.34s-.36.72-.26,1.23h7.5a4,4,0,0,0,2.37-.71,10.92,10.92,0,0,0,7.87-1.81,16.59,16.59,0,0,0,3.06-3.21A11.6,11.6,0,0,0,188.91,63a15.78,15.78,0,0,0,.68-2.25A21.3,21.3,0,0,0,188.78,49.53Z" style="fill:#f26722;fill-rule:evenodd"/><path id="path159" d="M140.54,69c.41-.26,1.08-.32,1.17-.93a1.5,1.5,0,0,0-.5-.33l-.44.13a5.42,5.42,0,0,1,.26-.81l1.38-.45a10.91,10.91,0,0,0-.32,2.14,7.56,7.56,0,0,0,.83,3.11h-1.49c-.17-1-1.2-1.7-.89-2.86Z" style="fill:#f26722;fill-rule:evenodd"/><path id="path161" d="M143.77,67.76h.08l1,.92.15,0c-.08,1.08-.14,2.13-.15,3.24h-1.09a13.48,13.48,0,0,1-.55-3.26,5.27,5.27,0,0,1,.55-.86Z" style="fill:#f26722;fill-rule:evenodd"/><path id="path163" d="M146,68.77c.2-.26.28-.7.68-.75a1,1,0,0,1,.76.25c.37.46,0,1-.12,1.51a18.23,18.23,0,0,1-.64,2.1h-1.06l.38-3.11Z" style="fill:#f26722;fill-rule:evenodd"/><path id="path165" d="M162,68.44c.23.3.3.7.65,1a2,2,0,0,0,.23-1.61l-.3-.3c.39-.1.79-.13,1.18-.2A4.63,4.63,0,0,0,163.3,69c0,1,.17,1.89.25,2.88H162.4a6.42,6.42,0,0,1-.81-2.88,2.4,2.4,0,0,1,.38-.56Z" style="fill:#f26722;fill-rule:evenodd"/><path id="path167" d="M166.94,48.27c0,.27-.21.57,0,.81.25-.29.67-.28,1-.4a8.2,8.2,0,0,1,2.7.42c-.22-.35-.37-.74-.61-1.05-.49-.13-1.22.21-1.3-.51-.3-.25-.76-.07-1.07,0a2.37,2.37,0,0,0-.7.78Z" style="fill:#fff;fill-rule:evenodd"/><path id="path169" d="M134.81,39.2h0Z" style="fill:#fff;fill-rule:evenodd"/><path id="path171" d="M138.63,48.53l.63-.6a.14.14,0,0,1,.13,0l0,1.16a1.59,1.59,0,0,0,1.08.4c0-.31.27-.53.41-.81s0-.54.27-.7l.08.07a3.22,3.22,0,0,0,.23,1c0,.17.05.38.07.53a2.63,2.63,0,0,0,1.24-.28,5,5,0,0,1,.18-1.09c.09-.12-.12-.35.14-.34.15.31.41.64.56,1a4,4,0,0,0,1-2.26c-.18-.24-.45-.24-.66-.4a7.86,7.86,0,0,0-5.8.2A2.64,2.64,0,0,0,138.63,48.53Z" style="fill:#fff;fill-rule:evenodd"/><path id="path173" d="M121.92,68.24a15.61,15.61,0,0,0,.06,2.37,1.14,1.14,0,0,0,.78.58l0-.53c.12-.75-.28-1.54.15-2.17a4.9,4.9,0,0,1,.84.38,1.88,1.88,0,0,0-.72-1.93Z" style="fill:#fff;fill-rule:evenodd"/><path id="path175" d="M124.52,67.11a6.19,6.19,0,0,0-.22,4,4.54,4.54,0,0,0,.83-.63,4.35,4.35,0,0,1,.4-2.86,1.88,1.88,0,0,1,1.06,1.13,1.94,1.94,0,0,0,.33-1.63c0-.47-.51-.36-.76-.55.08-.39.07-.84.48-1.06l-1.26.13A6,6,0,0,0,124.52,67.11Z" style="fill:#fff;fill-rule:evenodd"/><path id="path177" d="M127.12,70.73c0,.1,0,.27.11.29.15-.88.87-1.46,1.26-2.23.18-.26.18-.63.48-.83.41,0,.7.29,1.1.32.13.1-.06.18-.07.29a10.69,10.69,0,0,0-.31,2h.08a10.87,10.87,0,0,0,1.34-1.9l.08-.59c.09-.72-.69-1.18-1.19-1.47l.45-.58-.63-.22a2.82,2.82,0,0,0-1.91,1,8.42,8.42,0,0,0-.79,3.93Z" style="fill:#fff;fill-rule:evenodd"/><path id="path179" d="M130,64.5c.24.07.46-.12.7,0a6.33,6.33,0,0,1,2.7,1.53l.86,2.2.44-1.36-.29-.73c-.24-.53-.9-.48-1.36-.5-.18-.22,0-.46.08-.66.22-.74-.7-.7-1.06-1,0-.45-.53-.3-.83-.34l-.11-.13a.22.22,0,0,0-.3,0s-.07,0,0-.1l-.23.05A1.46,1.46,0,0,0,130,64.5Z" style="fill:#fff;fill-rule:evenodd"/><path id="path181" d="M130.55,62.09a.7.7,0,0,0,.23.35c.47-.12.92-.45,1.47-.25a8.34,8.34,0,0,0,2.29,1.61l.31-.06c.18.07.39.08.52.29s-.18.45-.27.68c.47.35.28,1,.58,1.39l.75-1c-.17-.44,0-1.2-.68-1.24a.67.67,0,0,1-.38-.61c-.45-.41-1-.59-1.46-1s-.59-.74-1.06-.85a3.77,3.77,0,0,0-1.06-.35C131.08,60.92,131,61.76,130.55,62.09Z" style="fill:#fff;fill-rule:evenodd"/><path id="path183" d="M131.57,60l.12.2c.53,0,1-.26,1.51-.25.35.21.8.19,1.16.37a3.89,3.89,0,0,0,1,1.09c.85.13,1.32,1,1.62,1.72v-.33a2.29,2.29,0,0,0-.18-1.39c-.21-.21-.52-.34-.74-.53a.42.42,0,0,1,0-.33,8,8,0,0,0-1.21-.81c-.56-.8-1.63-.58-2.48-.8L131.57,60Z" style="fill:#fff;fill-rule:evenodd"/><path id="path185" d="M131.55,52.31c.09.33.2.74.27,1.09.29-.65.87-.95,1.39-1.48a2.7,2.7,0,0,0-1-.36v0C132,51.77,131.63,52,131.55,52.31Z" style="fill:#fff;fill-rule:evenodd"/><path id="path187" d="M133.46,55.77l.47-.48a3.12,3.12,0,0,0,.94-1.66,1.35,1.35,0,0,0-1.11,0,13.84,13.84,0,0,0-.3,2.09Z" style="fill:#fff;fill-rule:evenodd"/><path id="path189" d="M133.8,57.25a3.06,3.06,0,0,0,2-.22l.59-1.89c-.19,0-.38-.1-.56,0A4.52,4.52,0,0,1,133.8,57.25Z" style="fill:#fff;fill-rule:evenodd"/><path id="path191" d="M134,50.55a4.22,4.22,0,0,0,2.07,1.69c-.1-.88-.85-1.49-1.24-2.25l0-.25a4.31,4.31,0,0,0-1-.65,4.76,4.76,0,0,0,.18,1.46Z" style="fill:#fff;fill-rule:evenodd"/><path id="path193" d="M136.58,57.33a3.74,3.74,0,0,0,1.67-.15c.75-.18,1.16-1,1.41-1.64h-.94l-1,1a7.32,7.32,0,0,0-1.14.8Z" style="fill:#fff;fill-rule:evenodd"/><path id="path195" d="M136.47,49.59a5.81,5.81,0,0,0,1,2.27l.12-1.56Z" style="fill:#fff;fill-rule:evenodd"/><path id="path197" d="M139.91,53.68a6.84,6.84,0,0,0-.22-1.67c-.31-.21-.75-.19-1.08-.4A3.09,3.09,0,0,0,139.91,53.68Z" style="fill:#fff;fill-rule:evenodd"/><path id="path199" d="M139,59a10.9,10.9,0,0,0,1.91-.77c.39-.56,1-1.06,1.06-1.71-.48.13-.9,0-1.36.2a3.42,3.42,0,0,1-1,1.4C139.52,58.49,139.13,58.73,139,59Z" style="fill:#fff;fill-rule:evenodd"/><path id="path201" d="M140,60.31l.78,1a1.6,1.6,0,0,0,1.32-.14l-.28-.94A3.73,3.73,0,0,1,140,60.31Z" style="fill:#fff;fill-rule:evenodd"/><path id="path203" d="M141.3,52.87l.3,1.39a2.78,2.78,0,0,0,.87-2.4,3.16,3.16,0,0,1-1.17,1Z" style="fill:#fff;fill-rule:evenodd"/><path id="path205" d="M143.37,55.32a.92.92,0,0,0,.18.54c.82.3.9,1.29,1.66,1.67a1.87,1.87,0,0,0,1.49-.25c-.32-.37-.69-.62-1-1-.22-.09-.44-.23-.43-.5l-1.89-.45Z" style="fill:#fff;fill-rule:evenodd"/><path id="path207" d="M144,60.28a2.53,2.53,0,0,0,1.35.73c-.09-.12,0,0,.07-.07l-.63-1.39c-.32,0-.64.07-.94.05A3.93,3.93,0,0,0,144,60.28Z" style="fill:#fff;fill-rule:evenodd"/><path id="path209" d="M145.14,53.81a8.32,8.32,0,0,1-.51-2.27c-.31.38-.64.62-.93,1C143.56,53.32,144.67,53.51,145.14,53.81Z" style="fill:#fff;fill-rule:evenodd"/><path id="path211" d="M146.42,53.09c.38.5,1.21.33,1.67.18-.22-.38-.93-.6-1.06-1a9,9,0,0,0-.45-2.09C146.21,51.06,145.77,52.13,146.42,53.09Z" style="fill:#fff;fill-rule:evenodd"/><path id="path213" d="M147.08,55.32c1,.76,2.08,1.66,3.55,1.33.11-.07.29-.06.31-.2-.43-.27-.89-.48-1.34-.74l-.5-.73h-.23a9.6,9.6,0,0,1-1.79.34Z" style="fill:#fff;fill-rule:evenodd"/><path id="path215" d="M147.1,63.83h.08A5.65,5.65,0,0,1,149.3,63c.2.08.07.3.25.38.45-.19,1-.15,1.46-.3a3.22,3.22,0,0,1,1.47.27c.35.47,1,.42,1.49.73l-.08-.73c-1-1.15-2.5-1.23-3.91-1.21l0-.15a2.69,2.69,0,0,0-1,.22,5.6,5.6,0,0,0-1.31.38A13.8,13.8,0,0,0,147.1,63.83Z" style="fill:#fff;fill-rule:evenodd"/><path id="path217" d="M148,50.93a1.78,1.78,0,0,0,1.71.81,2,2,0,0,1-.79-1.21c.11-.94-.92-1-1.43-1.49A6.37,6.37,0,0,0,148,50.93Z" style="fill:#fff;fill-rule:evenodd"/><path id="path219" d="M147.84,65.69H148c.55-.34,1.36-.08,1.91-.45.3-.16.32.26.53.38.52.31.58,1.26,1.31,1,.87.45.65,1.51.68,2.29l.81-.51c-.07-.41.16-.9-.1-1.26s-.75-.49-1-.86c.31-.53-.4-.79-.55-1.17l0-.06,1.12.15a1.67,1.67,0,0,1,.63,1c.87.15,1.08,1.14,1.38,1.76.18-.43.26-.89.44-1.31,0-.34-.46-.34-.69-.5a1.85,1.85,0,0,0-.78-1.37,11.47,11.47,0,0,0-2.87-.77l-.89.27c-.48.12-1,0-1.37.3C148,64.71,148,65.3,147.84,65.69Z" style="fill:#fff;fill-rule:evenodd"/><path id="path221" d="M148.4,61.37l.2.09c.43-.2.86-.43,1.31-.6.7-.2,1.25.6,1.84.1.22-.16.41.07.58.2.25.46.84.43,1.28.55-.22-.6-.49-1.41-1.26-1.51a8.2,8.2,0,0,1-1-.3c-.81-.9-1.33.73-2.22.33A2.47,2.47,0,0,0,148.4,61.37Z" style="fill:#fff;fill-rule:evenodd"/><path id="path223" d="M148.6,66.48c.33.28.68.77,1.21.7.65.31.37,1.17.73,1.62l.38-.33,0,0,.05,0,0,0a2,2,0,0,0-.22-1.24c-.24-.17-.52,0-.76-.15a1.06,1.06,0,0,0-.48-.71c-.17-.13-.39,0-.58,0Z" style="fill:#fff;fill-rule:evenodd"/><path id="path225" d="M149.91,53.68A5.43,5.43,0,0,0,151.47,55a2.54,2.54,0,0,0,1.49.15,10.29,10.29,0,0,1-1.24-1.23c-.15-.21-.18-.47-.38-.66a2.87,2.87,0,0,0-1.43.41Z" style="fill:#fff;fill-rule:evenodd"/><path id="path227" d="M150.49,49.92c.48.6,1.23.36,1.91.38v-.07l-1.05-.89A3,3,0,0,0,150.49,49.92Z" style="fill:#fff;fill-rule:evenodd"/><path id="path229" d="M131.14,40l.61,1.89c0-1.07.48-2,.38-3.06l.45-.67-1,.29A3.61,3.61,0,0,0,131.14,40Z" style="fill:#fff;fill-rule:evenodd"/><path id="path231" d="M131.55,36.74l.83-.48V35a4.35,4.35,0,0,0-.81.85Z" style="fill:#fff;fill-rule:evenodd"/><path id="path233" d="M148.6,38.65a1.18,1.18,0,0,1-.76.38,3.63,3.63,0,0,0,.31-2.85,3.66,3.66,0,0,0,.7-.25l0,0,.58-.5c.76-.53.47-1.53.75-2.27-.37-.59-.49-1.3-1-1.8l0,0c-.43-.55-1.2-.48-1.79-.75-.78-.27-1.38.27-1.94.63-.24,0-.09.35-.36.34-.14.39-.32.81-.43,1.24a4.17,4.17,0,0,0-3,.56,4.42,4.42,0,0,0-1.5-.54c-.37-.07-.8.06-1.08-.15-.4-.45-.48-1.27-1.17-1.38a.56.56,0,0,1-.29-.58c-.45-.07-.85-.28-1.29-.38-.67-.3-1.21.18-1.71.51a4,4,0,0,0-.69.25,10.16,10.16,0,0,0-1,1.84,4.1,4.1,0,0,0,.58,1.46,3,3,0,0,0,1.64,1.49,6.27,6.27,0,0,0,0,3.33h0l0,0a.56.56,0,0,1-.29,0h0a4.6,4.6,0,0,0,1.38,2.63c.28.1.21.42.33.63a.52.52,0,0,1,.05.38,8.35,8.35,0,0,0-4.42,1.1c-.33.17-.18.63-.22,1a8.17,8.17,0,0,1,3-1.26,4.48,4.48,0,0,1,1.46,0l.05.9a13.41,13.41,0,0,0-3.68,2.1,3.9,3.9,0,0,0,.05,1l1-.78a11.44,11.44,0,0,1,3-1.69,3.57,3.57,0,0,0,1,.9,7.07,7.07,0,0,1,2.07-.9c.39-.23,1,0,1.26-.48l.18-1s-.05-.06-.11,0a1.44,1.44,0,0,1-.77-1.36,1.33,1.33,0,0,1-.56.15c-.17,0-.33-.08-.4-.25s-.12-.53.09-.68a4,4,0,0,1,2.43-.38c.64.08,1.57.05,1.79.81,0,.22,0,.46-.23.61s-.49,0-.71-.11a1.72,1.72,0,0,1-1,1.26l.08.61c.07.27.09.72.52.63a9.33,9.33,0,0,1,2.76,1.31,6.75,6.75,0,0,0,.73-.93A13.76,13.76,0,0,1,150,48.08l0-.88a14.46,14.46,0,0,0-4-2.45,4.82,4.82,0,0,0,.13-.86,10.29,10.29,0,0,1,4.64,1.42l0-.76A10.22,10.22,0,0,0,146,43.24a.55.55,0,0,1-.07-.33,2.32,2.32,0,0,0,1.64-1.76c.43-.49,1-1,.91-1.76a.6.6,0,0,1,.06-.19,1,1,0,0,0,0-.55Z" style="fill:#fff;fill-rule:evenodd"/><path id="path235" d="M150.06,41.35l.86-.27.1-.48c.24-.71-.28-1.23-.53-1.79Z" style="fill:#fff;fill-rule:evenodd"/><path id="path237" d="M152.23,44.68c.41.45.81,1.17,1.54,1a4.08,4.08,0,0,0-.33-.84c-.18-.22-.25-.85-.63-.62-.28-.19-.35-.51-.53-.76a7.59,7.59,0,0,0-.05,1.26Z" style="fill:#fff;fill-rule:evenodd"/><path id="path239" d="M152.38,47.76c.16.22.2.5.36.7a1.69,1.69,0,0,0,1,.13c.32-.08.52.27.81.07-.37-.23-.59-.65-.93-1S152.81,47.66,152.38,47.76Z" style="fill:#fff;fill-rule:evenodd"/><path id="path241" d="M152.94,52.64a4.05,4.05,0,0,0,2.62.7c.1-.05.28,0,.3-.16a17.06,17.06,0,0,0-1.86-.94c-.35-.53-.8.14-1.24.1C152.77,52.46,152.9,52.56,152.94,52.64Z" style="fill:#fff;fill-rule:evenodd"/><path id="path243" d="M155.12,61.91l.16.34c.16,1.09.85,2.1.47,3.29.32.23.41.59.62.89h0a7.23,7.23,0,0,0,0-2.78c.09-.82-.75-1.31-1.25-1.74Z" style="fill:#fff;fill-rule:evenodd"/><path id="path245" d="M155.3,51.16a2.36,2.36,0,0,0,2,.25,6.24,6.24,0,0,1-1.16-.75Z" style="fill:#fff;fill-rule:evenodd"/><path id="path247" d="M157.9,54.38a1.15,1.15,0,0,0,.56,1,2.47,2.47,0,0,0,.32-.77,1.89,1.89,0,0,0-.76-1.17,2.71,2.71,0,0,0-.12.91Z" style="fill:#fff;fill-rule:evenodd"/><path id="path249" d="M157.93,59.17c-.07.49.47.56.7.83s-.12.39-.12.61a2.82,2.82,0,0,1,.63,1.78,15.09,15.09,0,0,0,.48-1.9c0-.47-.77-.37-.66-.89a2.25,2.25,0,0,0-.18-1.51c0-.07-.14-.22-.22-.18C158.37,58.34,157.9,58.65,157.93,59.17Z" style="fill:#fff;fill-rule:evenodd"/><path id="path251" d="M159.37,56.67l.55,1.06c.24,0,.4-.26.58-.43.15-.44-.24-.72-.35-1.08s0-.59-.18-.81-.29-.22-.45-.18l-.15,1.44Z" style="fill:#fff;fill-rule:evenodd"/><path id="path253" d="M160.07,53.88a3,3,0,0,1,1.16,1.1c.37,1.07,1,2,1.39,3.08.16.72.28,1.37.48,2.08.08.19,0,.56.33.53.08-.8.24-1.57.25-2.4a3.16,3.16,0,0,0-.94-.7V57.5c0-.18.2-.39.41-.36s.38-.21.26-.4c-.55-.54-.52-1.48-1.39-1.65a.82.82,0,0,1-.41-.74,2.49,2.49,0,0,0-1.54-.47Z" style="fill:#fff;fill-rule:evenodd"/><path id="path255" d="M160.58,59.57c.54.49.35,1.21.31,1.87-.09.4.42.17.57.38a2.29,2.29,0,0,1,0,1.71,10.77,10.77,0,0,0,.83-1.28c0-.18.22-.27.21-.49s-.27-.16-.41-.2-.27-.11-.22-.28a2.56,2.56,0,0,0-.09-1.68c-.12-.43.05-1-.15-1.39C161.33,58.68,160.33,58.78,160.58,59.57Z" style="fill:#fff;fill-rule:evenodd"/><path id="path257" d="M161.56,52.12c.93.94,1.62,1.89,2.63,2.8a11.51,11.51,0,0,0-.06-1.18,2.74,2.74,0,0,0-.65-.71c-.75-.07-1.13-1.07-1.92-.91Z" style="fill:#fff;fill-rule:evenodd"/><path id="path259" d="M164,57.12a2.18,2.18,0,0,0,.11.27,14.32,14.32,0,0,1,1.09,2.09c-.09-.78.44-1.74-.26-2.34-.09-.25-.41-.17-.61-.15l-.33.13Z" style="fill:#fff;fill-rule:evenodd"/><path id="path261" d="M166.53,64.79c.29.14.67-.1,1-.27a.82.82,0,0,1,.68.22c.08.16,0,.32,0,.48A6.44,6.44,0,0,1,170,66l.18-.18a1.25,1.25,0,0,0-.66-1c-.22-.13-.54-.05-.7-.25a1,1,0,0,0,.09-.61,1.61,1.61,0,0,1-.85-.27c-.18-.06-.33-.2-.48,0-.53.35-.56.88-1.06,1.13Z" style="fill:#fff;fill-rule:evenodd"/><path id="path263" d="M167.27,51.58a2,2,0,0,0,.75-.34c.71-.64,1.73-.21,2.55-.22a5.38,5.38,0,0,0-.58-.81,2.37,2.37,0,0,0-.91-.25c-.71-.42-1.19.28-1.74.63a1.15,1.15,0,0,0-.07,1Z" style="fill:#fff;fill-rule:evenodd"/><path id="path265" d="M167.28,53.74s0-.07,0-.08,0,.29.14.33a6.91,6.91,0,0,0,.78-.5c.71,0,1.13-.69,1.82-.69a10.62,10.62,0,0,1,3.31,1,2.28,2.28,0,0,0-1.26-1.61.87.87,0,0,0-.84.26c-.7.44-.34-.64-.83-.66a5.27,5.27,0,0,1-2,.35c-.42.16-.72.55-1.19.5A2.84,2.84,0,0,0,167.28,53.74Z" style="fill:#fff;fill-rule:evenodd"/><path id="path267" d="M167.77,56.08c.22.23.59.19.9.23l.92-.36c0-.16-.27-.21-.21-.4.25-.28.6-.08.91-.19s.9-.51,1.34-.18c0,0,0,.12,0,.18-.13.32.1.52.35.65.52.09,1,.56,1.52.35a10.58,10.58,0,0,0-.28-1.24c-.43-.07-.73-.43-1.13-.57a.9.9,0,0,1-.63.27c-.81-.19-1.78-.7-2.6-.18-.3.36-.82.25-1.22.41A4.34,4.34,0,0,0,167.77,56.08Z" style="fill:#fff;fill-rule:evenodd"/><path id="path269" d="M168.12,62.32c-.07.18-.24.47.08.56.67,0,1.54-.33,2.06.2.18.13.1.42.08.6l.89.73a8,8,0,0,0,.25-1.31,1.45,1.45,0,0,0-.53-.88c-.58,0-.92-.68-1.54-.6-.33-.07-.61.22-.94.22a5.34,5.34,0,0,0-.35.48Z" style="fill:#fff;fill-rule:evenodd"/><path id="path271" d="M168.37,57.37c.13.28.29.75.56.78a3,3,0,0,1,2.21-.15c.23,0,.23.3.18.47.36.21.79.38,1.17.61l-.11-.63c0-.68-.88-.74-.93-1.42a4.15,4.15,0,0,0-2.24-.12c-.24.22-.59.19-.88.25,0,.08,0,.14,0,.21Z" style="fill:#fff;fill-rule:evenodd"/><path id="path273" d="M168.55,60.77c.41-.11.67-.56,1.11-.61a2.11,2.11,0,0,1,1.7.87c.25.16.19.59.52.59a9.61,9.61,0,0,1,.05-1.51c-.44-.73-1.53-.16-1.94-1l-.78.06c-.56.13-.41.78-.48,1.23-.07.13-.19.24-.18.4Z" style="fill:#fff;fill-rule:evenodd"/><path id="path275" d="M172.41,65.37c.32.65,1,1.14,1.11,1.89a3.67,3.67,0,0,0,.4-.65c0-.21-.25-.21-.35-.38a1.4,1.4,0,0,1,.1-.76,2.15,2.15,0,0,0-.83-1l-.43.89Z" style="fill:#fff;fill-rule:evenodd"/><path id="path277" d="M173.7,63.71l.76,1a2.71,2.71,0,0,0,.19-1.89c-.07-.12-.21-.31-.39-.22C174,62.92,173.93,63.37,173.7,63.71Z" style="fill:#fff;fill-rule:evenodd"/><path id="path279" d="M170.62,35a2.09,2.09,0,0,0,.86.29,1.1,1.1,0,0,1,.78-.13c.39.25.86,0,1.31,0a4.82,4.82,0,0,0-1.31-.83C171.67,34.38,171.2,34.81,170.62,35Z" style="fill:#fff;fill-rule:evenodd"/><path id="path281" d="M174.73,36c.56,0,1,.55,1.33,1a1.85,1.85,0,0,1,1.12.75L177,37.1a3.72,3.72,0,0,0-.83-1.42A4,4,0,0,0,174.73,36Z" style="fill:#fff;fill-rule:evenodd"/><path id="path283" d="M135.5,31.34l.31,0c.81.41,2.14.62,2.21,1.8a6.52,6.52,0,0,0-2.29,1.44c-.5-.51-1.52-.23-1.69-1.13C134.2,32.63,134.5,31.56,135.5,31.34Z" style="fill:#f26722;fill-rule:evenodd"/><path id="path285" d="M136.29,36.67c1-.09,1.88,0,2.87,0a1.25,1.25,0,0,1,.61.55c0,1.14-.38,2.22-.43,3.38a1.58,1.58,0,0,0-1,1,8.76,8.76,0,0,0-1.12.53,1.14,1.14,0,0,1,.16-1.19c.41-.58,1.48-.44,1.39-1.36.28-.44,0-1,0-1.47s-.21.12-.38.11a1.35,1.35,0,0,1-1-.08c-.22-.23-.5-.42-.56-.73a1.75,1.75,0,0,1-.79-.68l.16,0Z" style="fill:#f26722;fill-rule:evenodd"/><path id="path287" d="M137.45,43.51c.44.07.92-.13,1.31.09-.08.15-.31.21-.48.25l-.71.33C137.31,44.11,137.46,43.69,137.45,43.51Z" style="fill:#f26722;fill-rule:evenodd"/><path id="path289" d="M139.28,34.75c.45-.15.94-.45,1.42-.31a7.15,7.15,0,0,0-.88,1.22l-1.44,0A2.07,2.07,0,0,1,139.28,34.75Z" style="fill:#f26722;fill-rule:evenodd"/><path id="path291" d="M143.5,34.4c.6-.1.57.67,1.11.7.1.13.24.24.18.43a7.91,7.91,0,0,1-1.13.15c-.48-.26-.17-1.08-.92-1,0-.06-.12-.19,0-.23A1.86,1.86,0,0,1,143.5,34.4Z" style="fill:#f26722;fill-rule:evenodd"/><path id="path293" d="M143.12,37.21a1.41,1.41,0,0,1,1-.47l2.73,0c.11.11-.11.2-.11.33-.17.16-.41.2-.56.34-.35,0-.32.44-.57.62-.39.38-1,.2-1.41.14a1.21,1.21,0,0,1-.42-.45l-.12.13c.16.58.12,1.24.23,1.83l.65.43c0,1,1.15.71,1.64,1.24a2.73,2.73,0,0,1-.6.94,3.49,3.49,0,0,0-1.33-.81c0-.57-.66-.9-1-1.19-.09-1-.11-2.08-.28-3.07Z" style="fill:#f26722;fill-rule:evenodd"/><path id="path295" d="M144.11,43.69h1.26l-.16.66L144,43.82c0-.11.09-.14.16-.13Z" style="fill:#f26722;fill-rule:evenodd"/><path id="path297" d="M146.38,31.8l.94-.3a9.33,9.33,0,0,1,1.53.93A3.66,3.66,0,0,1,149,34.9c-.29.32-.91,0-1.14.51h0a4.62,4.62,0,0,0-2.25-2.32,2,2,0,0,1,.81-1.29Z" style="fill:#f26722;fill-rule:evenodd"/></g></g></g></g></g></svg>