<?xml version="1.0" encoding="utf-8"?>
<!-- Generator: Adobe Illustrator 21.1.0, SVG Export Plug-In . SVG Version: 6.00 Build 0)  -->
<svg version="1.1" id="Ebene_1" xmlns="http://www.w3.org/2000/svg" xmlns:xlink="http://www.w3.org/1999/xlink" x="0px" y="0px"
	 viewBox="0 0 182 49" style="enable-background:new 0 0 182 49;" xml:space="preserve">
<style type="text/css">
	.st0{fill:#575756;}
	.st1{fill:none;stroke:#FFFFFF;stroke-width:1.8232;stroke-miterlimit:10;}
	.st2{fill:#F4993F;}
	.st3{fill:none;stroke:#F4993F;stroke-width:4.3885;stroke-linecap:round;stroke-miterlimit:10;}
	.st4{fill:none;stroke:#F4993F;stroke-width:5.1623;stroke-linecap:round;stroke-linejoin:round;stroke-miterlimit:10;}
	.st5{fill:#F3983F;}
</style>
<title>AFEE80F6-E152-4636-B79C-3083891E2663</title>
<desc>Created with sketchtool.</desc>
<g>
	<path class="st0" d="M7.9,5.3h0.5c0.1,0,0.2,0.1,0.3,0.2l2.8,7.5l2.9-7.8c0.1-0.2,0.2-0.2,0.3-0.2h0.8c0.2,0,0.3,0.1,0.2,0.3
		l-3.6,9.5C12.1,14.9,12,15,11.8,15h-0.5c-0.2,0-0.3-0.1-0.3-0.2L8.2,7.3l-2.8,7.4C5.3,14.9,5.2,15,5,15H4.5c-0.2,0-0.3-0.1-0.4-0.2
		L0.5,5.3c-0.1-0.2,0-0.3,0.2-0.3h0.9C1.8,4.9,1.9,5,2,5.2L4.9,13l2.8-7.5C7.7,5.3,7.8,5.3,7.9,5.3z"/>
	<path class="st0" d="M26.7,10.4h-8.2c0.3,2,1.8,3.3,3.7,3.3c1.2,0,2.3-0.6,3.1-1.3c0.2-0.2,0.4-0.1,0.5,0l0.4,0.5
		c0.1,0.2,0.1,0.3,0,0.5c-1.1,1.2-2.6,1.7-4,1.7c-3.1,0-5.2-2.5-5.2-5.4c0-2.9,2.2-5,5-5c2.8,0,4.9,2.1,5.1,5.3
		C27,10.3,26.9,10.4,26.7,10.4z M25.5,9.2c-0.3-1.8-1.8-3.1-3.6-3.1c-1.6,0-3.2,1.1-3.5,3.1H25.5z"/>
	<path class="st0" d="M34.4,5.3v0.6c0,0.2-0.1,0.4-0.4,0.4h-0.7c-1.5,0-2.8,0.9-2.8,2.5v5.8c0,0.2-0.1,0.4-0.4,0.4h-0.7
		c-0.2,0-0.4-0.1-0.4-0.4V5.3c0-0.2,0.1-0.4,0.4-0.4H30c0.2,0,0.4,0.1,0.4,0.4V6c0.5-0.6,1.5-1,2.6-1h1C34.2,4.9,34.4,5.1,34.4,5.3z
		"/>
	<path class="st0" d="M49.3,15h-0.9c-0.2,0-0.3-0.1-0.4-0.2l-3.3-4.6L44,11v3.7c0,0.2-0.1,0.4-0.4,0.4H43c-0.2,0-0.4-0.1-0.4-0.4
		V1.3c0-0.2,0.1-0.4,0.4-0.4h0.7c0.2,0,0.4,0.1,0.4,0.4v7.8l3.5-4c0.1-0.1,0.2-0.2,0.4-0.2h1c0.3,0,0.3,0.2,0.2,0.4l-3.5,3.9
		l3.9,5.4C49.6,14.8,49.5,15,49.3,15z"/>
	<path class="st0" d="M60,10.4h-8.2c0.3,2,1.8,3.3,3.7,3.3c1.2,0,2.3-0.6,3.1-1.3c0.2-0.2,0.4-0.1,0.5,0l0.4,0.5
		c0.1,0.2,0.1,0.3,0,0.5c-1.1,1.2-2.6,1.7-4,1.7c-3.1,0-5.2-2.5-5.2-5.4c0-2.9,2.2-5,5-5c2.8,0,4.9,2.1,5.1,5.3
		C60.3,10.3,60.2,10.4,60,10.4z M58.8,9.2c-0.3-1.8-1.8-3.1-3.6-3.1c-1.6,0-3.2,1.1-3.5,3.1H58.8z"/>
	<path class="st0" d="M70.8,8.9v5.7c0,0.2-0.1,0.4-0.4,0.4h-0.7c-0.2,0-0.4-0.1-0.4-0.4V8.9c0-1.5-1.3-2.8-2.8-2.8
		c-1.5,0-2.8,1.3-2.8,2.8v5.7c0,0.2-0.1,0.4-0.4,0.4h-0.7c-0.2,0-0.4-0.1-0.4-0.4V5.3c0-0.2,0.1-0.4,0.4-0.4h0.5
		c0.2,0,0.4,0.1,0.4,0.4V6c0.8-0.8,1.8-1.2,3-1.2C68.9,4.8,70.8,6.6,70.8,8.9z"/>
	<path class="st0" d="M81.4,8.9v5.7c0,0.2-0.1,0.4-0.4,0.4h-0.7c-0.2,0-0.4-0.1-0.4-0.4V8.9c0-1.5-1.3-2.8-2.8-2.8
		c-1.5,0-2.8,1.3-2.8,2.8v5.7c0,0.2-0.1,0.4-0.4,0.4h-0.7c-0.2,0-0.4-0.1-0.4-0.4V5.3c0-0.2,0.1-0.4,0.4-0.4h0.5
		c0.2,0,0.4,0.1,0.4,0.4V6c0.8-0.8,1.8-1.2,3-1.2C79.5,4.8,81.4,6.6,81.4,8.9z"/>
	<path class="st0" d="M88.5,13.9v0.7c0,0.2-0.1,0.4-0.4,0.4h-1.3c-1.9,0-3.3-1.4-3.3-3.3V2.1c0-0.2,0.1-0.4,0.4-0.4h0.7
		c0.2,0,0.4,0.1,0.4,0.4v2.8h3.2c0.2,0,0.3,0.1,0.3,0.3v0.6c0,0.2-0.1,0.3-0.3,0.3H85v5.5c0,1,0.8,1.9,1.9,1.9h1.3
		C88.4,13.6,88.5,13.7,88.5,13.9z"/>
	<path class="st0" d="M106.8,1.3v13.3c0,0.2-0.1,0.4-0.4,0.4h-0.5c-0.2,0-0.4-0.1-0.4-0.4v-1.3c-0.9,1.1-2.4,1.8-3.9,1.8
		c-2.9,0-5.2-2.3-5.2-5.2c0-2.9,2.3-5.2,5.2-5.2c1.5,0,2.8,0.6,3.8,1.6V1.3c0-0.2,0.1-0.4,0.4-0.4h0.7
		C106.6,0.9,106.8,1.1,106.8,1.3z M105.4,9.9c0-2.1-1.7-3.8-3.8-3.8c-2.1,0-3.8,1.7-3.8,3.8c0,2.1,1.7,3.8,3.8,3.8
		C103.7,13.7,105.4,12,105.4,9.9z"/>
	<path class="st0" d="M118.7,10.4h-8.2c0.3,2,1.8,3.3,3.7,3.3c1.2,0,2.3-0.6,3.1-1.3c0.2-0.2,0.4-0.1,0.5,0l0.4,0.5
		c0.1,0.2,0.1,0.3,0,0.5c-1.1,1.2-2.6,1.7-4,1.7c-3.1,0-5.2-2.5-5.2-5.4c0-2.9,2.2-5,5-5c2.8,0,4.9,2.1,5.1,5.3
		C119.1,10.3,118.9,10.4,118.7,10.4z M117.5,9.2c-0.3-1.8-1.8-3.1-3.6-3.1c-1.6,0-3.2,1.1-3.5,3.1H117.5z"/>
	<path class="st0" d="M129.6,8.9v5.7c0,0.2-0.1,0.4-0.4,0.4h-0.7c-0.2,0-0.4-0.1-0.4-0.4V8.9c0-1.5-1.3-2.8-2.8-2.8
		c-1.5,0-2.8,1.3-2.8,2.8v5.7c0,0.2-0.1,0.4-0.4,0.4h-0.7c-0.2,0-0.4-0.1-0.4-0.4V5.3c0-0.2,0.1-0.4,0.4-0.4h0.5
		c0.2,0,0.4,0.1,0.4,0.4V6c0.8-0.8,1.8-1.2,3-1.2C127.7,4.8,129.6,6.6,129.6,8.9z"/>
</g>
<g>
	<path class="st0" d="M18.8,39c0,5-4.1,9-9,9H1.7c-0.8,0-1.2-0.4-1.2-1.2V19.7c0-0.8,0.4-1.2,1.2-1.2H9c4.9,0,9,4,9,8.9
		c0,2-0.7,3.8-1.7,5.3C17.8,34.4,18.8,36.6,18.8,39z M6.6,30h2.1c1.4,0,2.6-1.1,2.6-2.5c0-1.4-1.2-2.5-2.6-2.5H6.6V30z M12.1,39
		c0-1.4-1.2-2.5-2.5-2.5H6.6v5.1h2.9C10.9,41.5,12.1,40.4,12.1,39z"/>
	<path class="st0" d="M39.1,42.7v4.1c0,0.8-0.4,1.2-1.2,1.2H23.3c-0.8,0-1.2-0.4-1.2-1.2V19.7c0-0.8,0.4-1.2,1.2-1.2h14.6
		c0.8,0,1.2,0.4,1.2,1.2v4.1c0,0.8-0.4,1.2-1.2,1.2h-9.3v5.5h8.6c0.8,0,1.2,0.4,1.2,1.2v3.3c0,0.8-0.4,1.2-1.2,1.2h-8.6v5.5h9.3
		C38.6,41.5,39.1,42,39.1,42.7z"/>
	<path class="st0" d="M51.4,48.3c-2.7,0-5.5-1-8.2-3c-0.8-0.6-1-1.2-0.6-1.9l1.9-3.5c0.4-0.7,1-0.8,1.7-0.4c1.8,1.1,3.4,1.7,4.8,1.7
		c1.7,0,2.7-0.8,2.7-2.1c0-2.3-3.2-3.1-6.1-4.7c-3.6-2-5.4-4.9-5.3-8.2c0.2-4.9,4.3-8.1,9.6-7.9c2.1,0.1,4.1,0.8,5.8,1.7
		c0.7,0.4,0.8,1,0.4,1.7l-1.8,2.8c-0.4,0.7-1,0.8-1.7,0.4c-0.8-0.4-1.8-0.8-2.9-0.8c-1.8,0-2.8,0.8-2.8,2c0,1.9,2.6,2.7,5,3.9
		c2.3,1.2,6.7,3.7,6.7,9.1C60.7,44.3,56.8,48.3,51.4,48.3z"/>
	<path class="st0" d="M82,19.7v4.1c0,0.8-0.5,1.2-1.2,1.2h-5.1v21.8c0,0.8-0.4,1.2-1.2,1.2h-4c-0.8,0-1.2-0.4-1.2-1.2V25h-5.1
		c-0.8,0-1.2-0.4-1.2-1.2v-4.1c0-0.8,0.4-1.2,1.2-1.2h16.5C81.5,18.5,82,19,82,19.7z"/>
	<path class="st0" d="M102.5,42.7v4.1c0,0.8-0.4,1.2-1.2,1.2H86.7c-0.8,0-1.2-0.4-1.2-1.2V19.7c0-0.8,0.4-1.2,1.2-1.2h14.6
		c0.8,0,1.2,0.4,1.2,1.2v4.1c0,0.8-0.4,1.2-1.2,1.2H92v5.5h8.6c0.8,0,1.2,0.4,1.2,1.2v3.3c0,0.8-0.4,1.2-1.2,1.2H92v5.5h9.3
		C102,41.5,102.5,42,102.5,42.7z"/>
	<path class="st0" d="M124.4,18.5h4c0.8,0,1.2,0.4,1.2,1.2v27.1c0,0.8-0.4,1.2-1.2,1.2h-2.9c-0.6,0-1.1-0.2-1.4-0.8l-11.3-16.6v16.1
		c0,0.8-0.4,1.2-1.2,1.2h-4c-0.8,0-1.2-0.4-1.2-1.2V19.7c0-0.8,0.4-1.2,1.2-1.2h2.7c0.6,0,1.1,0.2,1.4,0.8L123.2,36V19.7
		C123.2,19,123.6,18.5,124.4,18.5z"/>
</g>
<path class="st1" d="M121.3,23.3"/>
<g>
	<path class="st2" d="M142,38.7c-0.4,0-0.7-0.2-0.9-0.5c-3.2-4.9-4.3-10.8-3-16.5c2.6-11.6,14.1-19,25.8-16.4
		c0.9,0.2,1.8,0.5,2.7,0.8c0.6,0.2,0.8,0.8,0.6,1.4c-0.2,0.6-0.8,0.8-1.4,0.6c-0.8-0.3-1.6-0.5-2.5-0.7
		c-10.5-2.3-20.9,4.3-23.2,14.8c-1.1,5.1-0.2,10.4,2.7,14.8c0.3,0.5,0.2,1.2-0.3,1.5C142.4,38.6,142.2,38.7,142,38.7z"/>
	<path class="st2" d="M159.2,48c-1.6,0-3.1-0.2-4.7-0.5c-0.9-0.2-1.9-0.5-2.8-0.8c-0.6-0.2-0.8-0.8-0.6-1.4c0.2-0.6,0.8-0.8,1.4-0.6
		c0.8,0.3,1.7,0.5,2.5,0.7c2,0.4,4,0.6,6,0.4c0.6-0.1,1.1,0.4,1.2,1c0.1,0.6-0.4,1.1-1,1.2C160.5,47.9,159.9,48,159.2,48z"/>
	<path class="st3" d="M178.8,20.4"/>
	<path class="st2" d="M178.8,21.5c-0.5,0-0.9-0.3-1-0.8c-0.8-2.7-2.2-5.2-4.1-7.3c-0.4-0.4-0.4-1.1,0.1-1.5c0.4-0.4,1.1-0.4,1.5,0.1
		c2.1,2.3,3.7,5.1,4.6,8.1c0.2,0.6-0.1,1.2-0.7,1.3C179,21.5,178.9,21.5,178.8,21.5z"/>
	<path class="st4" d="M174,12.1"/>
	<path class="st4" d="M142.2,37.8"/>
	<polygon class="st5" points="179.3,24.1 180.4,25.5 182,25 181,26.4 182,27.8 180.3,27.3 179.3,28.7 179.3,26.9 177.7,26.4 
		179.3,25.9 	"/>
	<polygon class="st5" points="176.8,31.8 178.5,31.7 179,30.1 179.6,31.7 181.3,31.7 179.9,32.7 180.5,34.4 179.1,33.4 177.7,34.4 
		178.2,32.7 	"/>
	<polygon class="st5" points="177.1,35.7 177.1,37.5 178.8,37.9 177.2,38.5 177.2,40.3 176.1,38.9 174.5,39.5 175.5,38 174.4,36.7 
		176.1,37.2 	"/>
	<polygon class="st5" points="173.6,40.6 173.1,42.3 174.6,43.2 172.8,43.3 172.4,45 171.8,43.3 170,43.4 171.4,42.3 170.8,40.7 
		172.2,41.7 	"/>
	<polygon class="st5" points="168.8,44.2 167.9,45.7 169,47 167.3,46.6 166.4,48.1 166.3,46.3 164.6,45.9 166.2,45.3 166.1,43.6 
		167.2,44.9 	"/>
	<path class="st2" d="M145.1,39.7l-1.2,1.7c0,0.1,0,0.1,0,0.2c0.1,0,0.1,0,0.2,0l1.2-1.6C145.3,39.9,145.2,39.8,145.1,39.7z"/>
	<path class="st2" d="M146.7,41.2l-4.6,6.4c-0.1,0.1-0.1,0.2,0,0.3c0.1,0.1,0.2,0.1,0.3,0l4.8-6.2C147.1,41.5,146.9,41.4,146.7,41.2
		z"/>
	<path class="st2" d="M148.9,42.8l-2.2,3.1c-0.1,0.1,0,0.2,0,0.2c0.1,0.1,0.2,0,0.2,0l2.4-3.1C149.2,43,149.1,42.9,148.9,42.8z"/>
	<path class="st5" d="M170.6,14.5l-4,13c-0.1,0.2-0.3,0.4-0.5,0.4h0c0,0,0,0,0,0h0c-0.2,0-0.5-0.2-0.5-0.4l-2.5-7.4l-7.9-0.2
		c-0.2,0-0.5-0.2-0.5-0.4c-0.1-0.2,0-0.5,0.2-0.6l11-7.6c-1-0.4-2-0.7-3-1c-8.9-2-17.6,3.6-19.6,12.5c-1.2,5.3,0.4,10.6,3.7,14.4
		l10.1-14.2c0.2-0.2,0.5-0.3,0.7-0.1c0.2,0.2,0.3,0.5,0.1,0.7l-10.5,13.9c0.4,0.4,0.8,0.9,1.3,1.2l11.7-16.4
		c0.3-0.4,0.8-0.4,1.1-0.2c0.4,0.3,0.4,0.8,0.2,1.1l-12.3,16c0.5,0.4,1,0.7,1.6,1.1l10.3-14.3c0.2-0.3,0.6-0.3,0.8-0.1
		c0.3,0.2,0.3,0.6,0.1,0.8l-10.7,13.9c1.4,0.8,2.9,1.4,4.5,1.7c8.9,2,17.6-3.6,19.6-12.5C176.5,24.1,174.6,18.4,170.6,14.5z"/>
	<polygon class="st5" points="170.9,9.2 157.3,18.8 163.8,18.9 165.9,25.1 	"/>
</g>
</svg>
