<svg xmlns="http://www.w3.org/2000/svg" viewBox="0 0 200 100"><g id="Layer_2" data-name="Layer 2"><g id="Layer_1-2" data-name="Layer 1"><rect width="200" height="100" style="fill:none"/><g id="layer1"><path id="path22" d="M187.72,21.65H12.28A7.28,7.28,0,0,0,5,28.93V64.17H195V28.93a7.28,7.28,0,0,0-7.28-7.28" style="fill:#ee2827"/><path id="path24" d="M5,67v4.07a7.28,7.28,0,0,0,7.28,7.28H187.72A7.28,7.28,0,0,0,195,71.07V67H5" style="fill:#f9a81a"/><path id="path26" d="M52.64,36.91a10.52,10.52,0,0,1,5.64,10.78,10.41,10.41,0,0,1-20.61-2.9,10.55,10.55,0,0,1,9.59-9,13.91,13.91,0,0,0-8.13,7.91,5.26,5.26,0,0,0,.22,1,6.83,6.83,0,0,0,.5.94s1.73-7.21,8.83-9.86l.41,0c-6.36,2.69-8.3,10.76-8.3,10.89a3.79,3.79,0,0,0,.59.76,7,7,0,0,0,.89.71S43.7,38.78,50.19,36l.36.08c-6.37,3.16-6.82,12.81-6.83,13a3.46,3.46,0,0,0,.82.54,8.16,8.16,0,0,0,1.11.44s-.56-10.32,5.9-13.67l.37.14c-6.22,4.06-4.52,13.8-4.47,14a3.86,3.86,0,0,0,.93.22c.46.07,1.18.09,1.18.09s-2.91-9.41,3.08-14M177.43,55.32l-6.72-9.54v9.54h-5.59V29.2h5.59V45.14l6.46-7.75H183l-7.16,7.75,8,10.18Zm-22.09,0V42.72c0-1.87-1.6-2.67-3.66-2.67a8.13,8.13,0,0,0-2.63.4V55.32h-5.61V38.25a25,25,0,0,1,8.43-1.33c5.86,0,9.09,1.8,9.09,5.73V55.32Zm-21.26-9.51c-3.92.37-6.62,1-6.62,4.09,0,2.17,1.57,3.1,4.09,3.1a6,6,0,0,0,2.53-.47V45.81Zm-2.86,10c-6,0-9.08-2-9.08-5.69,0-4.76,5.52-6,11.94-6.55v-.9c0-2-1.56-2.6-3.92-2.6a15.76,15.76,0,0,0-5.53,1.07l-1.2-2.87a22.41,22.41,0,0,1,7.79-1.33c4.73,0,8.15,1.77,8.15,6.59v11a20.69,20.69,0,0,1-8.15,1.33M109.83,39.92a6,6,0,0,0-2.53.43v12a5.08,5.08,0,0,0,2.19.37c3.16,0,4.7-2.59,4.7-6.55,0-3.6-1.2-6.26-4.36-6.26m-.64,15.87c-3.52,0-6.09-.56-7.49-1.33V29.2h5.6v8.49a11.2,11.2,0,0,1,4.15-.7c5,0,8.46,3.6,8.46,8.89,0,6.22-3.83,9.91-10.72,9.91m-18.86,0a14.2,14.2,0,0,1-6.26-1.33l1.4-3.19a8.43,8.43,0,0,0,4.06,1.06c1.69,0,3-1,3-2.19,0-3.6-7.88-2.07-7.88-7.66,0-2.93,2.79-5.56,7.15-5.56a12.6,12.6,0,0,1,6.06,1.33l-1.37,2.87a6.73,6.73,0,0,0-3.42-1c-1.77,0-2.83.94-2.83,2,0,3.43,8.15,2.13,8.15,7.82,0,3.1-3.09,5.79-8.08,5.79M78.15,34.69c-1.73,0-3.1-1.09-3.1-2.42s1.37-2.43,3.1-2.43,3.12,1.1,3.12,2.43-1.39,2.42-3.12,2.42m-2.8,2.7H81V55.32H75.35Zm-4,3.16a7.64,7.64,0,0,0-4.63-.07V55.32H61.08V38.25a23,23,0,0,1,8.75-1.33,24.88,24.88,0,0,1,2.56.14l-1.06,3.49ZM29.48,55.32V42.72c0-1.87-1.59-2.67-3.66-2.67a8.11,8.11,0,0,0-2.62.4V55.32H17.57V38.25A25.13,25.13,0,0,1,26,36.92c5.85,0,9.08,1.8,9.08,5.73V55.32H29.48" style="fill:#fff"/><path id="path28" d="M5,67H195V64.17H5V67Z" style="fill:#fff"/></g></g></g></svg>