<svg id="Ebene_1" data-name="Ebene 1" xmlns="http://www.w3.org/2000/svg" viewBox="0 0 200 100"><path d="M129.79,43.71a18.48,18.48,0,0,0-24.24,0c-3.37,3-5.09,7.13-5.09,12.45s1.72,9.46,5.09,12.51a18.67,18.67,0,0,0,24.24,0c3.43-3,5.15-7.2,5.15-12.51S133.22,46.69,129.79,43.71ZM111.28,63a9.13,9.13,0,0,1-2.68-6.8,8.84,8.84,0,0,1,2.68-6.74,8.7,8.7,0,0,1,6.35-2.6,8.88,8.88,0,0,1,6.43,2.6,8.69,8.69,0,0,1,2.73,6.74,8.91,8.91,0,0,1-2.73,6.8,9.09,9.09,0,0,1-6.43,2.53A8.87,8.87,0,0,1,111.28,63ZM147,72.23V27.76h-8V72.23Zm25.86-32.15V57.83c0,4.27-2.27,7.11-6.58,7.11s-6.6-2.83-6.6-7.11V40.08h-8V59.19c0,7.4,4.58,14,14.63,14h.06c10,0,14.56-6.69,14.56-14V40.08Zm-80.9,0-8,21.78-8-21.78H67.38L80.17,72.23h7.51l12.79-32.15ZM67.42,55.25A16.18,16.18,0,0,0,63.1,43.71,14.51,14.51,0,0,0,52,39.18a16.34,16.34,0,0,0-16.6,17A16.73,16.73,0,0,0,40.14,68.4a15.61,15.61,0,0,0,11.51,4.74c6.94,0,11.83-3.12,14.82-9.4l-6-3.5c-2,3.95-4.83,5.89-8.71,5.89-4.77,0-8.14-3.11-8.65-8H67.42V55.25ZM51.77,45.4c4.52,0,7.51,2.59,8.27,6.74H43.12a9.23,9.23,0,0,1,8.65-6.74ZM35.43,72.23,24.67,53.05c6.81-2.53,10.18-6.94,10.18-13.35,0-7.85-6.1-12.84-15.83-12.84H0V72.23H8.4V53.82h7.12l10.3,18.41ZM19,34.38c5,0,7.44,2,7.44,6s-2.49,6-7.44,6H8.4V34.38ZM194.45,73.14a9.44,9.44,0,0,1-9.34-9.53V31.4h8v8.7H200v6.61h-6.87V63.08a2.76,2.76,0,0,0,2.74,2.8H200v7.26Z"/></svg>